<?xml version="1.0" encoding="UTF-8"?><svg id="Capa_1" xmlns="http://www.w3.org/2000/svg" xmlns:xlink="http://www.w3.org/1999/xlink" viewBox="0 0 350 196"><defs><style>.cls-1{fill:none;}.cls-2{clip-path:url(#clippath);}.cls-3{fill:#fff;}.cls-4{clip-path:url(#clippath-1);}.cls-5{fill:url(#Degradado_sin_nombre);}</style><clipPath id="clippath"><rect class="cls-1" width="350" height="196" rx="20" ry="20"/></clipPath><linearGradient id="Degradado_sin_nombre" x1="-33.48" y1="272.76" x2="435.52" y2="49.76" gradientTransform="translate(0 198) scale(1 -1)" gradientUnits="userSpaceOnUse"><stop offset="0" stop-color="#00ffe0"/><stop offset="1" stop-color="#0036e7"/></linearGradient><clipPath id="clippath-1"><rect class="cls-1" x="276" y="28" width="44.59" height="53.38"/></clipPath></defs><g class="cls-2"><g><path class="cls-5" d="m77,78.5C-2.5,90-23,46-55,16.5L-16-11h382.5c27.5,42.67,76.1,134.3,50.5,159.5-32,31.5-131.5,33-158.5-28.5s-102-53-181.5-41.5Z"/><g class="cls-4"><g><path class="cls-3" d="m318.84,71.1l-16.78-16.78,5.76-5.76c2.34-2.34,2.34-6.14,0-8.48-2.34-2.34-6.14-2.34-8.48,0l-9.98,9.98h0s-.04.05-.04.05h0s-1.33,1.33-1.33,1.33v-1.75c0-.26-.02-.51-.06-.77v-15.01c0-3.27-2.65-5.92-5.92-5.92h-.07c-3.27,0-5.92,2.65-5.92,5.92v15.2c-.02.19-.03.38-.03.58v16.22c0,.2.01.39.03.58v8.96c0,3.27,2.65,5.92,5.92,5.92h.07c3.27,0,5.92-2.65,5.92-5.92v-7.01l5.65-5.65,16.78,16.78c2.33,2.33,6.1,2.33,8.43,0l.04-.04c2.33-2.33,2.33-6.1,0-8.43h0Z"/><path class="cls-3" d="m314.46,40.02c3.31,0,5.99-2.68,5.99-6s-2.68-5.99-5.99-5.99-5.99,2.68-5.99,5.99,2.68,6,5.99,6Z"/></g></g><path class="cls-3" d="m339.89,121.27l14.11,1.23-14.11,1.23c-.62.05-1.11.54-1.16,1.16l-1.23,14.11-1.23-14.11c-.05-.62-.54-1.11-1.16-1.16l-14.11-1.23,14.11-1.23c.62-.05,1.11-.54,1.16-1.16l1.23-14.11,1.23,14.11c.05.62.54,1.11,1.16,1.16Z"/><path class="cls-3" d="m65.88,61.79l8.12.71-8.12.71c-.36.03-.64.31-.67.67l-.71,8.12-.71-8.12c-.03-.36-.31-.64-.67-.67l-8.12-.71,8.12-.71c.36-.03.64-.31.67-.67l.71-8.12.71,8.12c.03.36.31.64.67.67Z"/><path class="cls-3" d="m172.77,19.3l25.23,2.2-25.23,2.2c-1.1.09-1.98.97-2.07,2.07l-2.2,25.23-2.2-25.23c-.09-1.1-.97-1.98-2.07-2.07l-25.23-2.2,25.23-2.2c1.1-.09,1.98-.97,2.07-2.07l2.2-25.23,2.2,25.23c.09,1.1.97,1.98,2.07,2.07Z"/></g></g></svg>