<?xml version="1.0" encoding="UTF-8"?><svg id="Capa_1" xmlns="http://www.w3.org/2000/svg" xmlns:xlink="http://www.w3.org/1999/xlink" viewBox="0 0 532 300"><defs><style>.cls-1{fill:none;}.cls-2{fill:url(#Degradado_sin_nombre_11);opacity:.2;}.cls-2,.cls-3{isolation:isolate;}.cls-4{clip-path:url(#clippath);}.cls-5{fill:#0036e7;}.cls-6{fill:#00c4f8;}.cls-7,.cls-3{fill:#fff;}.cls-8{clip-path:url(#clippath-1);}.cls-3{opacity:.87;}.cls-9{fill:url(#Degradado_sin_nombre_10);}.cls-10{fill:url(#Degradado_sin_nombre_12);}.cls-11{opacity:.26;}.cls-12{opacity:.7;}.cls-13{fill:url(#Degradado_sin_nombre_6);}.cls-14{fill:url(#Degradado_sin_nombre_7);}.cls-15{fill:url(#Degradado_sin_nombre_2);}.cls-16{fill:url(#Degradado_sin_nombre_3);}.cls-17{fill:url(#Degradado_sin_nombre_8);}.cls-18{fill:url(#Degradado_sin_nombre_9);}.cls-19{fill:url(#Degradado_sin_nombre_4);}.cls-20{fill:url(#Degradado_sin_nombre_5);}.cls-21{fill:url(#Degradado_sin_nombre);}</style><linearGradient id="Degradado_sin_nombre" x1="491.14" y1="221.3" x2="40.02" y2="290.19" gradientTransform="translate(0 -132)" gradientUnits="userSpaceOnUse"><stop offset="0" stop-color="#1a4ae9"/><stop offset="1" stop-color="#00ffe0"/></linearGradient><linearGradient id="Degradado_sin_nombre_2" x1="247.45" y1="241.96" x2="314.67" y2="265.24" gradientTransform="translate(0 -132)" gradientUnits="userSpaceOnUse"><stop offset="0" stop-color="#00c4f8"/><stop offset="1" stop-color="#0036e7"/></linearGradient><linearGradient id="Degradado_sin_nombre_3" x1="217.48" y1="235.82" x2="314.5" y2="269.42" gradientTransform="translate(0 -132)" gradientUnits="userSpaceOnUse"><stop offset="0" stop-color="#00c4f8"/><stop offset="1" stop-color="#0036e7"/></linearGradient><linearGradient id="Degradado_sin_nombre_4" x1="226.6" y1="227.44" x2="319.28" y2="291.65" gradientTransform="translate(0 -132)" gradientUnits="userSpaceOnUse"><stop offset="0" stop-color="#6f00d4"/><stop offset="1" stop-color="#5800e2"/></linearGradient><linearGradient id="Degradado_sin_nombre_5" x1="329.48" y1="183.97" x2="333.36" y2="200.35" gradientTransform="translate(0 -132)" gradientUnits="userSpaceOnUse"><stop offset="0" stop-color="#00c4f8"/><stop offset="1" stop-color="#0036e7"/></linearGradient><linearGradient id="Degradado_sin_nombre_6" x1="333.62" y1="180" x2="338.84" y2="202.06" gradientTransform="translate(0 -132)" gradientUnits="userSpaceOnUse"><stop offset="0" stop-color="#113ebc"/><stop offset="1" stop-color="#221668"/></linearGradient><linearGradient id="Degradado_sin_nombre_7" x1="342.93" y1="202.43" x2="346.7" y2="218.35" gradientTransform="translate(0 -132)" gradientUnits="userSpaceOnUse"><stop offset="0" stop-color="#113ebc"/><stop offset="1" stop-color="#221668"/></linearGradient><linearGradient id="Degradado_sin_nombre_8" x1="333.83" y1="166.13" x2="331.35" y2="175.07" gradientTransform="translate(0 -132)" gradientUnits="userSpaceOnUse"><stop offset="0" stop-color="#113ebc"/><stop offset="1" stop-color="#221668"/></linearGradient><linearGradient id="Degradado_sin_nombre_9" x1="373.76" y1="170.94" x2="363.54" y2="234.95" gradientTransform="translate(0 -132)" gradientUnits="userSpaceOnUse"><stop offset="0" stop-color="#fff"/><stop offset="1" stop-color="#221668"/></linearGradient><linearGradient id="Degradado_sin_nombre_10" x1="411" y1="160.3" x2="416.88" y2="185.14" gradientTransform="translate(0 -132)" gradientUnits="userSpaceOnUse"><stop offset="0" stop-color="#0086ff"/><stop offset="1" stop-color="#4626c7"/></linearGradient><radialGradient id="Degradado_sin_nombre_11" cx="-266.72" cy="-200" fx="-266.72" fy="-200" r="1" gradientTransform="translate(-7566.73 18224.25) rotate(76.66) scale(59.44 59.45)" gradientUnits="userSpaceOnUse"><stop offset="0" stop-color="#0086ff" stop-opacity="0"/><stop offset="1" stop-color="#8a56ed"/></radialGradient><linearGradient id="Degradado_sin_nombre_12" x1="338.64" y1="190.16" x2="339.73" y2="194.76" gradientTransform="translate(0 -132)" gradientUnits="userSpaceOnUse"><stop offset="0" stop-color="#113ebc"/><stop offset="1" stop-color="#221668"/></linearGradient><clipPath id="clippath"><rect class="cls-1" x="102" width="350" height="200" rx="20" ry="20"/></clipPath><clipPath id="clippath-1"><rect class="cls-1" x="102" width="350" height="244" rx="20" ry="20"/></clipPath></defs><path class="cls-21" d="m102,20c0-11.05,8.95-20,20-20h310c11.05,0,20,8.95,20,20v204c0,11.05-8.95,20-20,20H122c-11.05,0-20-8.95-20-20V20Z"/><path class="cls-3" d="m340.1,53.05s-131.68,8.85-148.32,62.53c-16.65,53.67,21.66,66.91,21.66,66.91l-39.24-.68,183.19,40.8s-79.13-69.06-64.63-115.15c14.49-46.1,55.21-46.72,55.21-46.72"/><g class="cls-12"><path class="cls-15" d="m333.46,62.36c-6.91,1.69-13.64,4.05-20.12,6.81-6.49,2.76-12.76,5.97-18.6,9.73-11.63,7.46-21.75,17.25-27.13,28.97-2.7,5.84-4.19,12.03-4.61,18.28-.33,3.12-.04,6.29.08,9.42.52,3.17.76,6.29,1.66,9.39,2.96,12.46,8.86,24.42,16.08,35.66l-20.54,11.17c-6.32-13.7-11.38-28.45-12.88-44.12-1.81-15.5,1.43-32.34,9.98-45.52,4.23-6.61,9.63-12.21,15.54-16.87,5.91-4.68,12.34-8.43,18.96-11.5,6.63-3.09,13.49-5.49,20.44-7.37,6.96-1.88,13.98-3.3,21.08-4.03l.06-.03h0Z"/></g><g class="cls-11"><path class="cls-16" d="m338.04,58.14c-17.18,2.62-34.05,7.07-50.1,13.21-15.99,6.17-31.35,14.38-43.46,25.68-6.01,5.64-11.11,12.07-14.63,19.15-3.61,7.04-5.37,14.78-5.57,22.56-.15,7.77.83,15.66,3.37,23.29.93,3.86,2.73,7.57,4.15,11.33,1.6,3.72,3.59,7.32,5.36,11l-16.41,8.02c-1.66-4.34-3.5-8.54-4.97-12.93-1.28-4.5-2.88-8.82-3.64-13.52-2.13-9.11-2.6-18.81-1.53-28.31,1.1-9.51,4.19-18.93,9.24-26.97,4.97-8.09,11.5-14.92,18.68-20.54,14.46-11.24,31.11-18.17,47.96-23.05,16.9-4.83,34.2-7.79,51.55-8.9v-.02h0Z"/></g><path class="cls-19" d="m346.61,58.15c-9.92,1.8-19.61,4.39-29.06,7.57-9.43,3.19-18.59,6.97-27.2,11.53-8.59,4.57-16.62,9.94-23.41,16.21-6.78,6.27-12.19,13.47-15.41,21.19-6.59,15.5-3.81,32.59,3.24,48.65.45,1,.77,2.01,1.3,3.01l1.56,2.98,3.08,5.93c2.42,3.88,4.77,7.75,7.28,11.57,2.76,3.75,5.37,7.51,8.21,11.19l8.92,10.86-33.74,24.24-7.96-14.07c-2.53-4.79-4.86-9.78-7.24-14.64-2.22-5.03-4.24-10.21-6.26-15.3l-2.55-8.03-1.26-4c-.41-1.34-.66-2.77-1-4.16l-1.82-8.33c-.43-2.86-.75-5.76-1.08-8.62-.12-1.44-.41-2.83-.4-4.32l-.06-4.43c0-2.94-.12-5.85.33-8.86.96-11.82,4.76-23.74,11.21-33.61,6.41-9.94,15.02-17.69,24.15-23.6,9.18-5.94,18.95-10.18,28.84-13.4,9.89-3.23,19.96-5.47,30.02-7.02,10.08-1.54,20.19-2.45,30.28-2.52l.04-.04v.02Z"/><path class="cls-20" d="m335.51,66.73l-3.38-14.25c-.14-.59-.74-.96-1.33-.82l-2.64.62c-.6.14-.96.74-.82,1.33l3.38,14.25c.14.59.74.96,1.33.82l2.64-.62c.6-.14.96-.74.82-1.33Z"/><path class="cls-13" d="m341.73,67.88l-4.55-19.2c-.19-.8-.99-1.29-1.79-1.1l-3.55.84c-.8.19-1.29.99-1.1,1.78l4.55,19.2c.19.8.99,1.29,1.79,1.1l3.55-.84c.8-.19,1.29-.99,1.1-1.79h0Z"/><path class="cls-5" d="m357.8,35.19s-14.2-7.58-16.62-7.13c-2.43.46-27.97,11.96-27.97,11.96,0,0,24.08-.23,31.63,7.97l12.96-12.8Z"/><path class="cls-5" d="m366.2,70.66s-9.28,13.13-11.66,13.82-30.37,1.86-30.37,1.86c0,0,21.64-10.59,24.68-21.32l17.34,5.63h.02,0Z"/><path class="cls-14" d="m354.56,84.49c2.02-.59,9.11-10.27,11.1-13.07-.17-.16-.29-.25-.29-.25,0,0-8.2,10.94-12.17,11.48-3.98.54-13.82-.53-13.82-.53,0,0,6.38-7.7,9.79-8.12,3.41-.42,13.39-2.99,13.39-2.99l-16.01-1.48c-6.46,9-22.36,16.79-22.36,16.79,0,0,27.99-1.17,30.38-1.86v.02h-.01Z"/><path class="cls-17" d="m345.46,47.38l5.08-5.02c-1.04-2.83-4.59-8.04-16.49-5.99-11.19,1.95-17.79,3.08-20.73,3.58-.08.02-.12.06-.12.06,0,0,23.78-.23,31.48,7.84l.79-.47h-.01Z"/><path class="cls-7" d="m338.04,58.14s-3.42-9.85-2.64-11.1,18.14-15.76,45.85-18.05c27.71-2.29,42.15,6.8,42.75,9.32s-8.24,17.55-34.51,27.63c-26.27,10.08-48.38,5.19-48.56,4.43l-2.91-12.24h.02Z"/><path class="cls-5" d="m379.1,58.11c5.55,1.92,11.62-1.02,13.54-6.57s-1.02-11.61-6.58-13.54c-5.55-1.92-11.62,1.02-13.54,6.57s1.02,11.61,6.58,13.54Z"/><path class="cls-6" d="m380.24,54.82c3.74,1.29,7.81-.68,9.11-4.42,1.29-3.73-.69-7.81-4.42-9.1-3.74-1.29-7.81.68-9.11,4.42-1.29,3.73.69,7.81,4.42,9.1Z"/><path class="cls-18" d="m353.38,63.5c11.69,7.34,33.36.54,54.73-7.13-4.89,3.32-11,6.65-18.62,9.57-26.27,10.08-48.37,5.19-48.56,4.43l-2.91-12.24s-3.42-9.85-2.63-11.1c.42-.7,5.92-5.42,15.42-9.91-3.8,13.78-3.06,22.88,2.55,26.39h.03-.01Z"/><path class="cls-5" d="m315.52,63.87s25.58-10.2,30.43-11.73c4.84-1.54,15.28-1.88,15.97,1.02s-8.38,6.79-13.94,7.58c-5.56.79-32.47,3.15-32.47,3.15v-.02h.01Z"/><path class="cls-9" d="m404.57,29.82c-1.47,4.1-1.8,8.64-.73,13.2,1.06,4.55,3.51,8.59,6.72,11.62,10.11-7.53,13.84-14.64,13.45-16.32-.39-1.68-6.94-6.29-19.43-8.5h-.01Z"/><path class="cls-2" d="m413.01,45.02c.46-.54,6.57-5.15,5.78-6.77s-30.01-17.69-78.65,7.41c0,0,25.83-9.11,40.75-9.45s28.15,13.34,32.09,8.8h.03Z"/><path class="cls-10" d="m315.66,63.82l-.14.05s26.91-2.36,32.47-3.15c5.55-.77,14.63-4.67,13.94-7.58-.04-.16-.12-.31-.22-.45-2.59,1.57-9.05,3.89-21.5,6.53-10.73,2.26-20.68,3.95-24.55,4.6Z"/><path class="cls-7" d="m179.44,143.44c-14.06-36.98,19.87-65.09,51.57-76.01,10.6-3.98,21.56-6.78,32.61-8.81-10.78,3.19-21.42,6.73-31.7,11.07-30.24,12.35-61.03,37.48-52.48,73.75Z"/><path class="cls-7" d="m186.22,187.19c13.1,4.54,27.4-2.4,31.93-15.5,4.53-13.09-2.41-27.39-15.51-31.93-13.1-4.54-27.4,2.4-31.93,15.5-4.54,13.1,2.41,27.39,15.51,31.93h0Z"/><path class="cls-7" d="m203.91,179.69c13.1,4.54,27.4-2.4,31.93-15.5,4.54-13.1-2.41-27.39-15.51-31.93-13.1-4.54-27.4,2.4-31.93,15.5-4.54,13.1,2.41,27.39,15.51,31.93h0Z"/><path class="cls-7" d="m234.46,181.5c13.1,4.54,27.4-2.4,31.93-15.5,4.54-13.1-2.41-27.39-15.51-31.93-13.1-4.54-27.4,2.4-31.93,15.5-4.54,13.1,2.41,27.39,15.51,31.93h0Z"/><path class="cls-7" d="m288.47,208.48c13.1,4.54,27.4-2.4,31.93-15.5,4.54-13.1-2.41-27.39-15.51-31.93-13.1-4.54-27.4,2.4-31.93,15.5-4.54,13.1,2.41,27.39,15.51,31.93h0Z"/><path class="cls-7" d="m275.73,173.52c7.88,2.73,16.47-1.44,19.2-9.32,2.73-7.88-1.45-16.47-9.32-19.2s-16.47,1.44-19.2,9.32c-2.73,7.88,1.45,16.47,9.32,19.2Z"/><path class="cls-7" d="m267.73,154.39c5.58,1.93,11.67-1.02,13.6-6.6,1.93-5.58-1.03-11.67-6.6-13.6-5.58-1.93-11.67,1.02-13.6,6.6-1.93,5.58,1.02,11.66,6.6,13.6Z"/><path class="cls-7" d="m205.6,131.23c4.29,1.49,8.97-.79,10.45-5.07,1.49-4.29-.79-8.97-5.08-10.45-4.29-1.49-8.97.79-10.45,5.07-1.48,4.29.79,8.97,5.08,10.45Z"/><path class="cls-7" d="m263.56,129.87c4.29,1.49,8.97-.79,10.45-5.07,1.49-4.29-.79-8.97-5.08-10.45-4.29-1.49-8.97.79-10.46,5.07-1.48,4.29.79,8.97,5.08,10.45h.01Z"/><path class="cls-7" d="m296.22,177.68c7.88,2.73,16.47-1.44,19.2-9.32s-1.45-16.47-9.33-19.2-16.47,1.44-19.2,9.32c-2.73,7.88,1.45,16.47,9.32,19.2h0Z"/><path class="cls-7" d="m189.93,153.5c7.88,2.73,16.47-1.44,19.2-9.32,2.73-7.87-1.45-16.47-9.33-19.2-7.88-2.73-16.47,1.44-19.2,9.32-2.73,7.87,1.45,16.47,9.33,19.2h0Z"/><path class="cls-7" d="m217.39,147.99c7.88,2.73,16.47-1.44,19.2-9.32,2.73-7.87-1.45-16.47-9.33-19.2-7.88-2.73-16.47,1.44-19.2,9.32-2.73,7.87,1.45,16.47,9.33,19.2Z"/><path class="cls-7" d="m236.31,149.68c7.88,2.73,16.47-1.44,19.2-9.32,2.73-7.87-1.45-16.47-9.32-19.2s-16.47,1.44-19.2,9.32c-2.73,7.87,1.45,16.47,9.33,19.2h0Z"/><path class="cls-7" d="m253.85,160.94c5.87,2.03,12.29-1.08,14.32-6.95s-1.08-12.28-6.95-14.32c-5.87-2.03-12.28,1.08-14.32,6.95-2.03,5.87,1.08,12.28,6.95,14.32Z"/><path class="cls-7" d="m213.02,45.72l8.98.78-8.98.78c-.39.03-.7.35-.74.74l-.78,8.98-.78-8.98c-.03-.39-.35-.7-.74-.74l-8.98-.78,8.98-.78c.39-.03.7-.35.74-.74l.78-8.98.78,8.98c.03.39.35.7.74.74Z"/><g class="cls-4"><g><circle class="cls-7" cx="179.48" cy="119.31" r="36"/><circle class="cls-7" cx="147.02" cy="99.54" r="18"/><circle class="cls-7" cx="219.38" cy="103.23" r="18"/><circle class="cls-7" cx="205.97" cy="94.85" r="11"/><circle class="cls-7" cx="202.55" cy="91.97" r="11"/><circle class="cls-7" cx="167.87" cy="79.68" r="11"/><circle class="cls-7" cx="181.66" cy="81.36" r="9"/><circle class="cls-7" cx="155.01" cy="85.21" r="9"/><circle class="cls-7" cx="123.57" cy="31.25" r="5"/><circle class="cls-7" cx="214.62" cy="84.6" r="5"/><circle class="cls-7" cx="158.8" cy="73.78" r="5"/><ellipse class="cls-7" cx="268.81" cy="133.15" rx="36" ry="35.31" transform="translate(12.6 289.17) rotate(-57.69)"/><ellipse class="cls-7" cx="303.62" cy="118.49" rx="18" ry="17.65" transform="translate(41.19 311.77) rotate(-57.69)"/><ellipse class="cls-7" cx="232.63" cy="111.45" rx="18" ry="17.65" transform="translate(14.09 248.49) rotate(-57.69)"/><ellipse class="cls-7" cx="247.04" cy="105.19" rx="11" ry="10.79" transform="translate(26.09 257.76) rotate(-57.69)"/><ellipse class="cls-7" cx="250.84" cy="102.85" rx="11" ry="10.79" transform="translate(29.84 259.88) rotate(-57.69)"/><ellipse class="cls-7" cx="286.58" cy="95.89" rx="11" ry="10.79" transform="translate(52.36 286.84) rotate(-57.69)"/><ellipse class="cls-7" cx="272.9" cy="95.5" rx="9" ry="8.83" transform="translate(46.32 275.1) rotate(-57.69)"/><ellipse class="cls-7" cx="298.18" cy="103.22" rx="9" ry="8.83" transform="translate(51.57 300.06) rotate(-57.69)"/><ellipse class="cls-7" cx="152.17" cy="55.9" rx="8.19" ry="8.03" transform="translate(23.59 154.63) rotate(-57.69)"/><ellipse class="cls-7" cx="240.3" cy="93.83" rx="5" ry="4.9" transform="translate(32.55 246.77) rotate(-57.69)"/><ellipse class="cls-7" cx="296.37" cy="91.42" rx="5" ry="4.9" transform="translate(60.7 293.04) rotate(-57.69)"/><path class="cls-7" d="m106.12,57.02c19.88,0,36,16.12,36,36s-16.12,36-36,36-5.54-16.12-5.54-36-14.34-36,5.54-36Z"/><circle class="cls-7" cx="148.98" cy="96.64" r="18"/><circle class="cls-7" cx="140.79" cy="83.11" r="11"/><circle class="cls-7" cx="139.04" cy="79" r="11"/><circle class="cls-7" cx="113.61" cy="52.4" r="11"/><circle class="cls-7" cx="125.16" cy="60.12" r="9"/><circle class="cls-7" cx="104.89" cy="51.54" r="9"/><circle class="cls-7" cx="142.31" cy="58.16" r="5"/><circle class="cls-7" cx="153.13" cy="77.85" r="5"/><circle class="cls-7" cx="108.17" cy="43.05" r="5"/></g></g><path class="cls-7" d="m279.02,84.72l8.98.78-8.98.78c-.39.03-.7.35-.74.74l-.78,8.98-.78-8.98c-.03-.39-.35-.7-.74-.74l-8.98-.78,8.98-.78c.39-.03.7-.35.74-.74l.78-8.98.78,8.98c.03.39.35.7.74.74Z"/><path class="cls-7" d="m278.88,26.03l11.12.97-11.12.97c-.49.04-.87.43-.91.91l-.97,11.12-.97-11.12c-.04-.49-.43-.87-.91-.91l-11.12-.97,11.12-.97c.49-.04.87-.43.91-.91l.97-11.12.97,11.12c.04.49.43.87.91.91Z"/><g class="cls-8"><ellipse class="cls-7" cx="266" cy="200" rx="266" ry="100"/></g></svg>