<?xml version="1.0" encoding="utf-8"?>
<!-- Generator: Adobe Illustrator 27.2.0, SVG Export Plug-In . SVG Version: 6.00 Build 0)  -->
<svg version="1.1" id="Capa_1" xmlns="http://www.w3.org/2000/svg" xmlns:xlink="http://www.w3.org/1999/xlink" x="0px" y="0px"
	 viewBox="0 0 350 324" style="enable-background:new 0 0 350 324;" xml:space="preserve">
<style type="text/css">
	.st0{fill:#FFFFFF;}
	.st1{fill:url(#SVGID_1_);}
	.st2{clip-path:url(#SVGID_00000110448287831964195160000013536291552705880231_);}
	.st3{fill:url(#SVGID_00000143602720472977732790000005741117879249940098_);}
	.st4{fill:url(#SVGID_00000137097949798744476870000010356203599849007520_);}
	.st5{opacity:0.87;fill:#FFFFFF;enable-background:new    ;}
	.st6{opacity:0.7;}
	.st7{fill:url(#SVGID_00000118357775616619753610000008983837374326433188_);}
	.st8{opacity:0.26;}
	.st9{fill:url(#SVGID_00000122717759557428670820000010388641546085869745_);}
	.st10{fill:url(#SVGID_00000113334808680965618170000005273177803280386984_);}
	.st11{fill:url(#SVGID_00000001648097370938821090000008057764443260686996_);}
	.st12{fill:url(#SVGID_00000107574789958389799030000016929308950009020306_);}
	.st13{fill:#0036E7;}
	.st14{fill:url(#SVGID_00000116193112863365274330000011492445155374825653_);}
	.st15{fill:url(#SVGID_00000098934624417245767690000015211205846701142702_);}
	.st16{fill:#00C4F8;}
	.st17{fill:url(#SVGID_00000075860987542203874030000018020935231690962585_);}
	.st18{fill:url(#SVGID_00000027576864052352291900000017584558146358965636_);}
	.st19{opacity:0.2;fill:url(#SVGID_00000078754609042881887870000014637986113548686499_);enable-background:new    ;}
	.st20{fill:url(#SVGID_00000137109542255265320120000012376626738267529397_);}
	.st21{fill:#FFFFFF;filter:url(#Adobe_OpacityMaskFilter);}
	.st22{mask:url(#mask0_249_133_00000165953920582435331570000006098042745589047740_);}
	.st23{clip-path:url(#SVGID_00000154423641970313159790000017204114543157647251_);fill:#FFFFFF;}
</style>
<g>
	<path class="st0" d="M20,0h310c11,0,20,9,20,20v284c0,11-9,20-20,20H20c-11,0-20-9-20-20V20C0,9,9,0,20,0z"/>
</g>
<linearGradient id="SVGID_1_" gradientUnits="userSpaceOnUse" x1="-13.0018" y1="438.412" x2="397.9982" y2="800.4121" gradientTransform="matrix(1 0 0 1 0 -442)">
	<stop  offset="0" style="stop-color:#0036E7"/>
	<stop  offset="1" style="stop-color:#00FFE0"/>
</linearGradient>
<path class="st1" d="M20,0h310c11,0,20,9,20,20v284c0,11-9,20-20,20H20c-11,0-20-9-20-20V20C0,9,9,0,20,0z"/>
<g>
	<g>
		<defs>
			
				<rect id="SVGID_00000103970670098317956320000011258459843741027514_" x="222.3" y="181.8" transform="matrix(0.2141 -0.9768 0.9768 0.2141 -10.2446 443.9561)" width="97" height="93"/>
		</defs>
		<clipPath id="SVGID_00000087374877654974320510000003896050611296326546_">
			<use xlink:href="#SVGID_00000103970670098317956320000011258459843741027514_"  style="overflow:visible;"/>
		</clipPath>
		<g style="clip-path:url(#SVGID_00000087374877654974320510000003896050611296326546_);">
			<g>
				
					<radialGradient id="SVGID_00000013899922671356767170000017577247058846139059_" cx="-1500.9144" cy="883.5392" r="1" gradientTransform="matrix(67.0198 14.6862 14.7269 -67.2054 87838.25 81627.7891)" gradientUnits="userSpaceOnUse">
					<stop  offset="0" style="stop-color:#F93A79"/>
					<stop  offset="0.15" style="stop-color:#F4387B"/>
					<stop  offset="0.31" style="stop-color:#E83383"/>
					<stop  offset="0.47" style="stop-color:#D32C91"/>
					<stop  offset="0.63" style="stop-color:#B621A4"/>
					<stop  offset="0.8" style="stop-color:#9014BD"/>
					<stop  offset="0.96" style="stop-color:#6304DA"/>
					<stop  offset="1" style="stop-color:#5800E2"/>
				</radialGradient>
				<path style="fill:url(#SVGID_00000013899922671356767170000017577247058846139059_);" d="M260.8,273.2
					c24.8,5.4,49.2-10.3,54.7-35.1c5.4-24.8-10.2-49.4-35-54.8c-24.8-5.4-49.2,10.3-54.7,35.1C220.4,243.2,236,267.7,260.8,273.2
					L260.8,273.2z"/>
				
					<linearGradient id="SVGID_00000005988555144754957250000002234311113782912641_" gradientUnits="userSpaceOnUse" x1="223.3683" y1="340.1083" x2="317.8683" y2="319.4084" gradientTransform="matrix(1 0 0 -1 0 558)">
					<stop  offset="0" style="stop-color:#6F00D4"/>
					<stop  offset="1" style="stop-color:#5800E2"/>
				</linearGradient>
				<path style="fill:url(#SVGID_00000005988555144754957250000002234311113782912641_);" d="M301.6,194.2c1.8-0.7,3.5-1.4,5.4-2
					c1.8-0.6,3.6-1.2,5.5-1.7c1.9-0.4,3.8-0.9,5.8-1c1,0,2,0,3.1,0.2c1,0.2,2.1,0.7,3,1.7c0.9,0.9,1.1,2.2,1.2,3.4
					c0,1.1-0.2,2.2-0.5,3.2c-0.6,2-1.5,3.8-2.5,5.5c-2,3.5-4.2,6.7-6.7,9.7c-2.4,3.1-5.1,5.9-7.9,8.6c-2.8,2.7-5.8,5.1-8.8,7.6
					c-6,4.8-12.3,9.3-18.8,13.6c-6.5,4.2-13.1,8.1-19.9,11.7c-6.8,3.6-13.8,6.8-21.2,9.4c-3.7,1.2-7.4,2.4-11.3,2.9
					c-1.9,0.3-4,0.5-6,0.2c-1-0.1-2.1-0.4-3.1-0.9s-2-1.4-2.4-2.5c-0.5-1.1-0.5-2.3-0.3-3.3s0.5-2,0.9-2.9c0.8-1.8,1.9-3.5,3-5
					c2.3-3.1,4.9-5.9,7.6-8.6c-2.5,2.9-4.8,5.9-6.8,9.2c-1,1.6-1.9,3.3-2.5,5c-0.3,0.9-0.5,1.7-0.6,2.6s0,1.7,0.4,2.3
					c0.6,1.3,2.3,1.8,4,1.9s3.6-0.2,5.4-0.5c3.6-0.8,7.1-2,10.6-3.4c7-2.8,13.7-6.3,20.2-10.1c6.5-3.8,12.9-7.9,19.1-12.2
					s12.2-8.9,18-13.7c2.9-2.4,5.7-4.9,8.5-7.4s5.6-5,8.4-7.5c2.7-2.6,5.4-5.2,7.5-8.2c1.1-1.5,2-3.1,2.6-4.7
					c0.3-0.8,0.5-1.6,0.5-2.4s-0.2-1.4-0.6-2s-1-1-1.8-1.3s-1.7-0.5-2.6-0.6c-1.8-0.2-3.7-0.1-5.6,0.2s-3.7,0.7-5.6,1.2
					C305.2,193,303.4,193.5,301.6,194.2L301.6,194.2L301.6,194.2z"/>
			</g>
		</g>
	</g>
</g>
<path class="st5" d="M185.3,106.8c0,0-121.5,51.5-119.7,107.6c1.8,56.2,42.4,56.1,42.4,56.1l-37.3,12.2l186.4-21.4
	c0,0-97.4-39.4-98.8-87.7c-1.4-48.3,36.9-62.2,36.9-62.2"/>
<g class="st6">
	
		<linearGradient id="SVGID_00000071552517023524070980000001655018667560617347_" gradientUnits="userSpaceOnUse" x1="116.34" y1="367.1" x2="187.48" y2="367.1" gradientTransform="matrix(1 0 0 -1 0 558)">
		<stop  offset="0" style="stop-color:#00C4F8"/>
		<stop  offset="1" style="stop-color:#0036E7"/>
	</linearGradient>
	<path style="fill:url(#SVGID_00000071552517023524070980000001655018667560617347_);" d="M182,117.8c-6,3.9-11.6,8.3-16.8,13
		s-10.1,9.8-14.4,15.3c-8.6,10.9-14.9,23.4-16.1,36.2c-0.6,6.4,0,12.7,1.6,18.8c0.7,3.1,2,6,3.1,8.9c1.5,2.8,2.8,5.7,4.6,8.3
		c6.9,10.8,16.4,20.2,26.9,28.4L155.1,264c-10.5-10.9-20.1-23.2-26.6-37.5c-6.8-14.1-9.2-31-5.5-46.3c1.8-7.6,5.1-14.7,9.2-21
		c4.1-6.4,8.9-12,14.1-17.1c5.2-5.1,10.9-9.6,16.9-13.6C169.3,124.5,175.5,120.9,182,117.8L182,117.8L182,117.8z"/>
</g>
<g class="st8">
	
		<linearGradient id="SVGID_00000076562657249842547960000010448414364356012944_" gradientUnits="userSpaceOnUse" x1="86.01" y1="363.05" x2="188.68" y2="363.05" gradientTransform="matrix(1 0 0 -1 0 558)">
		<stop  offset="0" style="stop-color:#00C4F8"/>
		<stop  offset="1" style="stop-color:#0036E7"/>
	</linearGradient>
	<path style="fill:url(#SVGID_00000076562657249842547960000010448414364356012944_);" d="M185,112.3c-15.4,8.1-29.9,17.8-43,28.9
		c-13.1,11.1-24.9,23.9-32.7,38.5c-3.8,7.3-6.6,15-7.6,22.9c-1.1,7.8-0.2,15.7,2.1,23.1c2.4,7.4,5.9,14.5,10.8,20.9
		c2.1,3.3,5.1,6.3,7.6,9.4c2.7,3,5.8,5.7,8.7,8.6l-12.9,13c-3-3.5-6.1-6.9-8.9-10.6c-2.7-3.8-5.6-7.4-7.9-11.6
		c-5-7.9-8.6-16.9-10.7-26.2c-2.1-9.4-2.2-19.3-0.1-28.5c2.1-9.3,6-17.9,10.9-25.5c10-15.4,23.5-27.4,37.8-37.5
		C153.6,127.6,169,119.1,185,112.3L185,112.3L185,112.3z"/>
</g>
<linearGradient id="SVGID_00000155835541685099970600000017815824328563519654_" gradientUnits="userSpaceOnUse" x1="91.8895" y1="373.964" x2="200.4894" y2="343.634" gradientTransform="matrix(1 0 0 -1 0 558)">
	<stop  offset="0" style="stop-color:#6F00D4"/>
	<stop  offset="1" style="stop-color:#5800E2"/>
</linearGradient>
<path style="fill:url(#SVGID_00000155835541685099970600000017815824328563519654_);" d="M193.1,109.5c-8.8,4.9-17.1,10.6-25,16.7
	c-7.9,6.1-15.3,12.7-21.9,19.8c-6.6,7.1-12.5,14.8-16.8,23c-4.4,8.1-7.1,16.7-7.6,25.1c-1.2,16.8,7.1,32,19,44.9
	c0.8,0.8,1.4,1.6,2.2,2.4l2.4,2.3l4.9,4.6c3.6,2.9,7,5.8,10.7,8.5c3.8,2.6,7.5,5.3,11.4,7.9l12,7.3l-23.9,34l-12.1-10.7
	c-4-3.7-7.8-7.6-11.6-11.5c-3.7-4-7.4-8.3-10.9-12.4l-5-6.8l-2.5-3.4c-0.8-1.1-1.5-2.4-2.3-3.6l-4.4-7.3c-1.3-2.6-2.6-5.2-3.8-7.8
	c-0.6-1.3-1.3-2.5-1.8-3.9l-1.5-4.2c-1-2.8-2-5.5-2.6-8.5c-3-11.5-3.3-24-0.4-35.4c2.8-11.5,8.4-21.6,15.1-30.2
	c6.7-8.6,14.6-15.8,22.9-22.1s17.1-11.7,26.1-16.5C174.3,117.1,183.6,113,193.1,109.5L193.1,109.5L193.1,109.5z"/>
<linearGradient id="SVGID_00000075877744367714296420000014043161447208573850_" gradientUnits="userSpaceOnUse" x1="174.884" y1="448.7088" x2="183.904" y2="434.4988" gradientTransform="matrix(1 0 0 -1 0 558)">
	<stop  offset="0" style="stop-color:#00C4F8"/>
	<stop  offset="1" style="stop-color:#0036E7"/>
</linearGradient>
<path style="fill:url(#SVGID_00000075877744367714296420000014043161447208573850_);" d="M185.4,121.3l-7.9-12.4
	c-0.3-0.5-1-0.7-1.5-0.3l-2.3,1.4c-0.5,0.3-0.7,1-0.3,1.5l7.9,12.4c0.3,0.5,1,0.7,1.5,0.3l2.3-1.4
	C185.6,122.5,185.7,121.8,185.4,121.3L185.4,121.3z"/>
<linearGradient id="SVGID_00000181078119703092904410000003616815890619956125_" gradientUnits="userSpaceOnUse" x1="177.4872" y1="453.8007" x2="189.6372" y2="434.6607" gradientTransform="matrix(1 0 0 -1 0 558)">
	<stop  offset="0" style="stop-color:#113EBC"/>
	<stop  offset="1" style="stop-color:#221668"/>
</linearGradient>
<path style="fill:url(#SVGID_00000181078119703092904410000003616815890619956125_);" d="M191.7,120.3l-10.6-16.7
	c-0.4-0.7-1.4-0.9-2.1-0.5l-3.1,2c-0.7,0.4-0.9,1.4-0.5,2.1l10.6,16.7c0.4,0.7,1.4,0.9,2.1,0.5l3.1-2
	C191.9,121.9,192.1,121,191.7,120.3z"/>
<path class="st13" d="M196.1,84.2c0,0-15.9-2.5-18-1.3s-22.5,20.5-22.5,20.5s22.7-8.1,32.5-2.8L196.1,84.2L196.1,84.2z"/>
<path class="st13" d="M215.7,114.9c0,0-4.5,15.4-6.5,16.9s-28.1,11.7-28.1,11.7s17-17.1,16.3-28.2L215.7,114.9L215.7,114.9
	L215.7,114.9z"/>
<linearGradient id="SVGID_00000085972448834906035070000000737883749452772273_" gradientUnits="userSpaceOnUse" x1="193.6413" y1="435.6572" x2="202.4113" y2="421.8472" gradientTransform="matrix(1 0 0 -1 0 558)">
	<stop  offset="0" style="stop-color:#113EBC"/>
	<stop  offset="1" style="stop-color:#221668"/>
</linearGradient>
<path style="fill:url(#SVGID_00000085972448834906035070000000737883749452772273_);" d="M209.2,131.8c1.7-1.2,5.2-12.7,6.2-16
	c-0.2-0.1-0.4-0.1-0.4-0.1s-4.2,13-7.8,14.8s-13.2,4-13.2,4s3.5-9.4,6.6-10.9s11.7-7.2,11.7-7.2l-15.6,3.8
	c-3.2,10.6-15.6,23.2-15.6,23.2S207.2,133.3,209.2,131.8L209.2,131.8L209.2,131.8z"/>
<linearGradient id="SVGID_00000178177302994327627260000010364237053838059192_" gradientUnits="userSpaceOnUse" x1="173.2442" y1="466.9765" x2="173.8242" y2="457.7165" gradientTransform="matrix(1 0 0 -1 0 558)">
	<stop  offset="0" style="stop-color:#113EBC"/>
	<stop  offset="1" style="stop-color:#221668"/>
</linearGradient>
<path style="fill:url(#SVGID_00000178177302994327627260000010364237053838059192_);" d="M188.5,99.7l3.2-6.4
	c-1.9-2.3-7-6.1-17.5-0.3c-9.9,5.5-15.8,8.7-18.4,10.2c-0.1,0.1-0.1,0.1-0.1,0.1s22.4-8,32.3-2.9L188.5,99.7L188.5,99.7z"/>
<path class="st0" d="M185,112.3c0,0-6.4-8.2-6.1-9.6c0.3-1.4,12-20.8,37.4-32.1s42.1-7.4,43.5-5.2c1.4,2.2-2,19.3-23.6,37.4
	s-44,20.7-44.4,20.1L185,112.3L185,112.3L185,112.3z"/>
<path class="st13" d="M223.8,98.9c5.9,0,10.6-4.8,10.6-10.6s-4.8-10.6-10.6-10.6s-10.6,4.8-10.6,10.6S217.9,98.9,223.8,98.9z"/>
<path class="st16" d="M223.8,95.4c3.9,0,7.2-3.2,7.2-7.2s-3.2-7.2-7.2-7.2s-7.2,3.2-7.2,7.2S219.8,95.4,223.8,95.4z"/>
<linearGradient id="SVGID_00000057864422478054139790000009822246554410779556_" gradientUnits="userSpaceOnUse" x1="212.4311" y1="475.4967" x2="223.7311" y2="411.6667" gradientTransform="matrix(1 0 0 -1 0 558)">
	<stop  offset="0" style="stop-color:#FFFFFF"/>
	<stop  offset="1" style="stop-color:#221668"/>
</linearGradient>
<path style="fill:url(#SVGID_00000057864422478054139790000009822246554410779556_);" d="M201.2,112.4c13.4,3.1,31.7-10.4,49.4-24.7
	c-3.5,4.7-8.2,9.9-14.5,15.1c-21.5,18.1-44,20.7-44.4,20.1l-6.8-10.6c0,0-6.4-8.2-6.1-9.6c0.2-0.8,3.8-7.1,11.3-14.4
	C191.1,102.6,194.8,110.9,201.2,112.4L201.2,112.4L201.2,112.4z"/>
<path class="st13" d="M165.6,125.1c0,0,20.8-18,24.9-21c4.1-3,13.8-6.8,15.4-4.3s-5.7,9.2-10.7,11.7
	C190.2,114.1,165.6,125.2,165.6,125.1L165.6,125.1L165.6,125.1z"/>
<linearGradient id="SVGID_00000099634679379744811660000002712558628917324687_" gradientUnits="userSpaceOnUse" x1="244.1403" y1="497.7195" x2="257.829" y2="476.1716" gradientTransform="matrix(1 0 0 -1 0 558)">
	<stop  offset="0" style="stop-color:#0086FF"/>
	<stop  offset="1" style="stop-color:#4626C7"/>
</linearGradient>
<path style="fill:url(#SVGID_00000099634679379744811660000002712558628917324687_);" d="M238.6,63.8c-0.1,4.4,1.1,8.8,3.6,12.7
	s6.1,7,10.1,8.8c7.1-10.4,8.3-18.4,7.4-19.8C258.8,64,251.1,61.8,238.6,63.8L238.6,63.8z"/>
<radialGradient id="SVGID_00000141432916272717799310000015248215993968906152_" cx="-1504.2834" cy="900.0666" r="1" gradientTransform="matrix(31.8846 50.1646 50.173 -31.8899 2995.2749 104276.7578)" gradientUnits="userSpaceOnUse">
	<stop  offset="0" style="stop-color:#0086FF;stop-opacity:0"/>
	<stop  offset="1" style="stop-color:#8A56ED"/>
</radialGradient>
<path style="opacity:0.2;fill:url(#SVGID_00000141432916272717799310000015248215993968906152_);enable-background:new    ;" d="
	M251.5,75.4c0.3-0.7,4.5-7,3.2-8.3s-34.1-6.9-71.9,32.7c0,0,21.4-17.1,35.4-22.3C232.3,72.4,249.3,81,251.5,75.4L251.5,75.4
	L251.5,75.4z"/>
<linearGradient id="SVGID_00000000932189626486870080000015883531113846130108_" gradientUnits="userSpaceOnUse" x1="185.5638" y1="445.8424" x2="188.1026" y2="441.8542" gradientTransform="matrix(1 0 0 -1 0 558)">
	<stop  offset="0" style="stop-color:#113EBC"/>
	<stop  offset="1" style="stop-color:#221668"/>
</linearGradient>
<path style="fill:url(#SVGID_00000000932189626486870080000015883531113846130108_);" d="M165.7,125l-0.1,0.1c0,0,24.6-11,29.6-13.6
	c5-2.5,12.3-9.2,10.7-11.7c-0.1-0.1-0.2-0.3-0.4-0.3c-1.9,2.3-7.3,6.6-18.2,13.2C178,118.3,169.1,123.1,165.7,125L165.7,125z"/>
<path class="st0" d="M63,244.8c-25.4-30.3-2.5-68,23.8-88.7c8.7-7.2,18.2-13.5,27.9-19c-9.1,6.5-18,13.4-26.3,20.8
	C63.9,179.5,43.1,213.4,63,244.8L63,244.8z"/>
<path class="st0" d="M83.8,284c13.9,0,25.1-11.2,25.1-25.1s-11.2-25.1-25.1-25.1S58.7,245,58.7,258.9C58.7,272.7,69.9,284,83.8,284z
	"/>
<path class="st0" d="M98,271.1c13.9,0,25.1-11.2,25.1-25.1s-11.2-25.1-25.1-25.1S72.9,232.1,72.9,246S84.2,271.1,98,271.1z"/>
<path class="st0" d="M127.5,262.8c13.9,0,25.1-11.2,25.1-25.1s-11.2-25.1-25.1-25.1s-25.1,11.2-25.1,25.1S113.6,262.8,127.5,262.8z"
	/>
<path class="st0" d="M187.3,270.6c13.9,0,25.1-11.2,25.1-25.1s-11.2-25.1-25.1-25.1s-25.1,11.2-25.1,25.1
	C162.2,259.4,173.5,270.6,187.3,270.6z"/>
<path class="st0" d="M163.9,241.8c8.3,0,15.1-6.8,15.1-15.1s-6.8-15.1-15.1-15.1s-15.1,6.8-15.1,15.1S155.5,241.8,163.9,241.8z"/>
<path class="st0" d="M150,226.3c5.9,0,10.7-4.8,10.7-10.7s-4.8-10.7-10.7-10.7s-10.7,4.8-10.7,10.7S144.1,226.3,150,226.3z"/>
<path class="st0" d="M83.8,224.7c4.5,0,8.2-3.7,8.2-8.2s-3.7-8.2-8.2-8.2s-8.2,3.7-8.2,8.2S79.2,224.7,83.8,224.7z"/>
<path class="st0" d="M138.1,204.5c4.5,0,8.2-3.7,8.2-8.2s-3.7-8.2-8.2-8.2s-8.2,3.7-8.2,8.2S133.5,204.5,138.1,204.5z"/>
<path class="st0" d="M184.6,239c8.3,0,15.1-6.8,15.1-15.1s-6.8-15.1-15.1-15.1s-15.1,6.8-15.1,15.1S176.3,239,184.6,239z"/>
<path class="st0" d="M76.2,250.9c8.3,0,15.1-6.8,15.1-15.1s-6.8-15.1-15.1-15.1s-15.1,6.8-15.1,15.1S67.9,250.9,76.2,250.9z"/>
<path class="st0" d="M100.4,236.7c8.3,0,15.1-6.8,15.1-15.1s-6.8-15.1-15.1-15.1s-15.1,6.8-15.1,15.1S92,236.7,100.4,236.7z"/>
<path class="st0" d="M118.8,232.1c8.3,0,15.1-6.8,15.1-15.1s-6.8-15.1-15.1-15.1s-15.1,6.8-15.1,15.1S110.5,232.1,118.8,232.1z"/>
<path class="st0" d="M139.1,237c6.2,0,11.3-5,11.3-11.2s-5-11.2-11.3-11.2s-11.3,5-11.3,11.2S132.9,237,139.1,237z"/>
<path class="st0" d="M290.9,140.3l14.1,1.2l-14.1,1.2c-0.6,0.1-1.1,0.5-1.2,1.2l-1.2,14.1l-1.2-14.1c0-0.6-0.5-1.1-1.2-1.2
	l-14.1-1.2l14.1-1.2c0.6-0.1,1.1-0.5,1.2-1.2l1.2-14.1l1.2,14.1C289.8,139.7,290.3,140.2,290.9,140.3z"/>
<path class="st0" d="M167.2,45.6l9.8,0.9l-9.8,0.9c-0.4,0-0.8,0.4-0.8,0.8l-0.9,9.8l-0.9-9.8c0-0.4-0.4-0.8-0.8-0.8l-9.8-0.9
	l9.8-0.9c0.4,0,0.8-0.4,0.8-0.8l0.9-9.8l0.9,9.8C166.4,45.3,166.7,45.6,167.2,45.6z"/>
<path class="st0" d="M49.2,118.6l9.8,0.9l-9.8,0.9c-0.4,0-0.8,0.4-0.8,0.8l-0.9,9.8l-0.9-9.8c0-0.4-0.4-0.8-0.8-0.8l-9.8-0.9
	l9.8-0.9c0.4,0,0.8-0.4,0.8-0.8l0.9-9.8l0.9,9.8C48.4,118.3,48.7,118.6,49.2,118.6z"/>
<defs>
	<filter id="Adobe_OpacityMaskFilter" filterUnits="userSpaceOnUse">
		<feColorMatrix  type="matrix" values="1 0 0 0 0  0 1 0 0 0  0 0 1 0 0  0 0 0 1 0"/>
	</filter>
</defs>
<mask maskUnits="userSpaceOnUse" id="mask0_249_133_00000165953920582435331570000006098042745589047740_">
	<ellipse class="st21" cx="175.5" cy="617" rx="357.5" ry="382.5"/>
</mask>
<g class="st22">
</g>
<g>
	<defs>
		<path id="SVGID_00000147905512847290801150000006282978194194723516_" d="M20,0.5h310c11,0,20,9,20,20v284c0,11-9,20-20,20H20
			c-11,0-20-9-20-20v-284C0,9.5,9,0.5,20,0.5z"/>
	</defs>
	<clipPath id="SVGID_00000141451683724964453430000006873779389471741112_">
		<use xlink:href="#SVGID_00000147905512847290801150000006282978194194723516_"  style="overflow:visible;"/>
	</clipPath>
	
		<circle style="clip-path:url(#SVGID_00000141451683724964453430000006873779389471741112_);fill:#FFFFFF;" cx="176" cy="579.5" r="344.5"/>
</g>
</svg>
