<?xml version="1.0" encoding="UTF-8"?><svg id="Capa_1" xmlns="http://www.w3.org/2000/svg" xmlns:xlink="http://www.w3.org/1999/xlink" viewBox="0 0 283.46 283.46"><defs><style>.cls-1{fill:none;}.cls-2{fill:url(#Degradado_sin_nombre_11);opacity:.2;}.cls-2,.cls-3{isolation:isolate;}.cls-4{clip-path:url(#clippath);}.cls-5{fill:#0036e7;}.cls-6{fill:#00c4f8;}.cls-7,.cls-3{fill:#fff;}.cls-8{fill:url(#Degradado_sin_nombre_5-3);}.cls-9{fill:url(#Degradado_sin_nombre_5-2);}.cls-3{opacity:.87;}.cls-10{fill:url(#Degradado_sin_nombre_10);}.cls-11{fill:url(#Degradado_sin_nombre_12);}.cls-12{opacity:.26;}.cls-13{opacity:.7;}.cls-14{fill:url(#Degradado_sin_nombre_2);}.cls-15{fill:url(#Degradado_sin_nombre_9);}.cls-16{fill:url(#Degradado_sin_nombre_4);}.cls-17{fill:url(#Degradado_sin_nombre_5);}.cls-18{fill:url(#Degradado_sin_nombre_12-4);}.cls-19{fill:url(#Degradado_sin_nombre_12-2);}.cls-20{fill:url(#Degradado_sin_nombre_12-3);}</style><linearGradient id="Degradado_sin_nombre_2" x1="70.74" y1="299.49" x2="209.4" y2="540.05" gradientTransform="translate(0 -280.93)" gradientUnits="userSpaceOnUse"><stop offset="0" stop-color="#00ffe0"/><stop offset="1" stop-color="#0036e7"/></linearGradient><clipPath id="clippath"><circle class="cls-1" cx="141.73" cy="141.73" r="127.53"/></clipPath><linearGradient id="Degradado_sin_nombre_5" x1="76.59" y1="467.8" x2="142.02" y2="473.87" gradientTransform="translate(0 -280.93)" gradientUnits="userSpaceOnUse"><stop offset="0" stop-color="#00c4f8"/><stop offset="1" stop-color="#0036e7"/></linearGradient><linearGradient id="Degradado_sin_nombre_5-2" x1="48.35" y1="468.88" x2="142.78" y2="477.64" xlink:href="#Degradado_sin_nombre_5"/><linearGradient id="Degradado_sin_nombre_4" x1="54.68" y1="459.38" x2="151.96" y2="496.56" gradientTransform="translate(0 -280.93)" gradientUnits="userSpaceOnUse"><stop offset="0" stop-color="#6f00d4"/><stop offset="1" stop-color="#5800e2"/></linearGradient><linearGradient id="Degradado_sin_nombre_5-3" x1="137.4" y1="397.7" x2="144.48" y2="411.53" xlink:href="#Degradado_sin_nombre_5"/><linearGradient id="Degradado_sin_nombre_12" x1="140.24" y1="393.23" x2="149.79" y2="411.87" gradientTransform="translate(0 -280.93)" gradientUnits="userSpaceOnUse"><stop offset="0" stop-color="#113ebc"/><stop offset="1" stop-color="#221668"/></linearGradient><linearGradient id="Degradado_sin_nombre_12-2" x1="153.53" y1="411.3" x2="160.41" y2="424.76" xlink:href="#Degradado_sin_nombre_12"/><linearGradient id="Degradado_sin_nombre_12-3" x1="137.37" y1="380.75" x2="137.11" y2="389.32" xlink:href="#Degradado_sin_nombre_12"/><linearGradient id="Degradado_sin_nombre_9" x1="174.25" y1="376.26" x2="179.19" y2="435.93" gradientTransform="translate(0 -280.93)" gradientUnits="userSpaceOnUse"><stop offset="0" stop-color="#fff"/><stop offset="1" stop-color="#221668"/></linearGradient><linearGradient id="Degradado_sin_nombre_10" x1="205.3" y1="358.52" x2="216.05" y2="379.51" gradientTransform="translate(0 -280.93)" gradientUnits="userSpaceOnUse"><stop offset="0" stop-color="#0086ff"/><stop offset="1" stop-color="#4626c7"/></linearGradient><radialGradient id="Degradado_sin_nombre_11" cx="-663.88" cy="-112.05" fx="-663.88" fy="-112.05" r="1.33" gradientTransform="translate(8545.48 26651.6) rotate(62.87) scale(41.33 41.34)" gradientUnits="userSpaceOnUse"><stop offset="0" stop-color="#0086ff" stop-opacity="0"/><stop offset="1" stop-color="#8a56ed"/></radialGradient><linearGradient id="Degradado_sin_nombre_12-4" x1="146.98" y1="401.24" x2="148.97" y2="405.13" xlink:href="#Degradado_sin_nombre_12"/></defs><g><circle class="cls-14" cx="141.73" cy="141.73" r="127.53"/><g class="cls-4"><g><g><path class="cls-3" d="m147.17,115.41S31,152.35,27.89,204.17c-3.1,51.81,34.17,55.25,34.17,55.25l-35.35,8.03,173.31-3.75s-86.19-44.52-83.34-89.06c2.85-44.55,39.23-54.07,39.23-54.07"/><g class="cls-13"><path class="cls-17" d="m143.26,125.22c-5.83,3.04-11.34,6.63-16.55,10.54-5.22,3.91-10.13,8.17-14.54,12.82-8.79,9.25-15.71,20.27-17.95,31.97-1.13,5.83-1.11,11.71-.11,17.42.39,2.88,1.35,5.65,2.15,8.43,1.16,2.73,2.07,5.48,3.56,8.06,5.4,10.52,13.33,19.95,22.28,28.45l-15.96,14.55c-8.69-10.89-16.47-23.01-21.27-36.74-5.04-13.5-5.84-29.32-1.07-43.03,2.34-6.86,5.96-13.08,10.22-18.55,4.27-5.5,9.21-10.28,14.48-14.48,5.26-4.22,10.89-7.9,16.71-11.11s11.81-6.05,18.02-8.26l.05-.04v-.02Z"/></g><g class="cls-12"><path class="cls-9" d="m146.43,120.42c-14.84,6.14-28.99,13.83-42.04,22.89-12.99,9.06-24.95,19.8-33.33,32.61-4.15,6.38-7.31,13.28-8.91,20.4-1.69,7.11-1.56,14.44-.03,21.46,1.58,7,4.2,13.86,8.16,20.15,1.69,3.26,4.12,6.19,6.22,9.24,2.26,2.99,4.84,5.78,7.23,8.68l-12.95,10.81c-2.45-3.53-5.02-6.89-7.3-10.5-2.14-3.75-4.52-7.27-6.25-11.33-3.92-7.7-6.48-16.3-7.61-25.05-1.11-8.77-.42-17.9,2.35-26.23,2.68-8.36,7.03-15.92,12.23-22.53,10.5-13.27,23.91-23.16,37.94-31.24,14.1-8.06,28.96-14.52,44.28-19.34v-.02h0Z"/></g><path class="cls-16" d="m154.12,118.55c-8.5,3.8-16.62,8.26-24.4,13.19-7.75,4.94-15.13,10.34-21.86,16.33-6.7,5.99-12.72,12.57-17.43,19.69-4.7,7.12-7.97,14.76-9.16,22.41-2.5,15.36,3.76,30.07,13.62,42.93.62.8,1.14,1.63,1.83,2.42l2.06,2.33,4.07,4.64c3.02,2.94,5.98,5.9,9.08,8.77,3.3,2.75,6.47,5.56,9.83,8.23l10.4,7.78-24.93,29.18-10.24-10.87c-3.32-3.74-6.52-7.7-9.72-11.53-3.1-4.03-6.06-8.23-8.99-12.35l-4.06-6.64-2.01-3.31c-.66-1.11-1.2-2.34-1.81-3.51l-3.47-7.07c-1.02-2.47-1.94-5.01-2.86-7.49-.43-1.26-.99-2.45-1.31-3.79l-1.03-3.96c-.65-2.64-1.39-5.22-1.66-8.01-1.75-10.82-.97-22.34,2.66-32.62,3.56-10.32,9.58-19.18,16.46-26.49,6.93-7.35,14.76-13.3,22.91-18.37,8.16-5.07,16.7-9.3,25.38-12.91,8.7-3.6,17.57-6.64,26.6-8.93l.03-.05.02-.02Z"/></g><path class="cls-7" d="m22.96,231.88c-20.76-30.07,3.49-62.76,29.51-79.53,8.63-5.9,17.85-10.83,27.31-15.09-8.96,5.23-17.73,10.76-25.99,16.91-24.41,17.73-46.49,47.06-30.83,77.71Z"/><path class="cls-7" d="m38.67,269.63c12.75,1.18,24.05-8.19,25.23-20.94,1.18-12.74-8.19-24.04-20.95-25.22-12.75-1.18-24.05,8.19-25.23,20.94-1.18,12.74,8.19,24.04,20.95,25.22Z"/><path class="cls-7" d="m52.89,259.01c12.75,1.18,24.05-8.19,25.23-20.94,1.18-12.74-8.19-24.04-20.95-25.22-12.75-1.18-24.05,8.19-25.23,20.94-1.18,12.74,8.19,24.04,20.95,25.22Z"/><path class="cls-7" d="m80.7,253.9c12.75,1.18,24.05-8.19,25.23-20.94,1.18-12.74-8.19-24.04-20.95-25.22s-24.05,8.19-25.23,20.94c-1.18,12.74,8.19,24.04,20.95,25.22Z"/><path class="cls-7" d="m135.08,266.2c12.75,1.18,24.05-8.19,25.23-20.94,1.18-12.74-8.19-24.04-20.95-25.22-12.75-1.18-24.05,8.19-25.23,20.94-1.18,12.74,8.19,24.04,20.95,25.22h0Z"/><path class="cls-7" d="m100.23,271.34c12.75,1.18,24.05-8.19,25.23-20.94,1.18-12.74-8.19-24.04-20.95-25.22-12.75-1.18-24.05,8.19-25.23,20.94-1.18,12.74,8.19,24.04,20.95,25.22Z"/><path class="cls-7" d="m170.95,277.46c12.75,1.18,24.05-8.19,25.23-20.94s-8.19-24.04-20.95-25.22c-12.75-1.18-24.04,8.19-25.23,20.94-1.18,12.74,8.19,24.04,20.95,25.22Z"/><path class="cls-7" d="m130.85,286.93c12.75,1.18,24.04-8.19,25.23-20.94s-8.19-24.04-20.95-25.22c-12.75-1.18-24.05,8.19-25.23,20.94-1.18,12.74,8.19,24.04,20.95,25.22h0Z"/><path class="cls-7" d="m115.96,237.66c7.67.71,14.46-4.92,15.17-12.59.71-7.66-4.93-14.46-12.59-15.17-7.67-.71-14.46,4.93-15.17,12.59-.71,7.66,4.93,14.46,12.59,15.17Z"/><path class="cls-7" d="m104.57,222.25c5.43.51,10.24-3.48,10.75-8.92.51-5.42-3.49-10.23-8.92-10.74-5.43-.51-10.24,3.49-10.75,8.92-.51,5.43,3.49,10.23,8.92,10.74Z"/><path class="cls-7" d="m43.73,215.16c4.18.39,7.87-2.68,8.26-6.86.39-4.17-2.68-7.87-6.86-8.26-4.18-.39-7.87,2.68-8.26,6.85-.39,4.17,2.68,7.87,6.86,8.26h0Z"/><path class="cls-7" d="m95.43,201.18c4.18.39,7.87-2.68,8.26-6.85s-2.68-7.87-6.86-8.26-7.87,2.68-8.26,6.86c-.39,4.17,2.68,7.87,6.86,8.26h0Z"/><path class="cls-7" d="m135.25,236.87c7.67.71,14.46-4.92,15.17-12.59.71-7.66-4.93-14.46-12.59-15.17-7.67-.71-14.46,4.93-15.17,12.59-.71,7.66,4.93,14.46,12.59,15.17Z"/><path class="cls-7" d="m34.58,238.59c7.67.71,14.46-4.92,15.17-12.59.71-7.66-4.93-14.46-12.59-15.17-7.67-.71-14.46,4.93-15.17,12.59-.71,7.66,4.93,14.46,12.59,15.17Z"/><path class="cls-7" d="m58,227.6c7.67.71,14.46-4.93,15.17-12.59.71-7.66-4.93-14.46-12.59-15.17-7.67-.71-14.46,4.93-15.17,12.59-.71,7.66,4.93,14.46,12.59,15.17Z"/><path class="cls-7" d="m75.35,224.95c7.67.71,14.46-4.93,15.17-12.59.71-7.66-4.93-14.46-12.59-15.17-7.67-.71-14.46,4.93-15.17,12.59-.71,7.66,4.93,14.46,12.59,15.17Z"/><path class="cls-7" d="m93.56,231.19c5.72.53,10.78-3.67,11.32-9.39.53-5.71-3.67-10.78-9.39-11.31-5.72-.53-10.78,3.67-11.32,9.39-.53,5.71,3.67,10.78,9.39,11.31Z"/></g></g><path class="cls-8" d="m146.06,128.68l-6.17-12.04c-.26-.51-.88-.7-1.37-.44l-2.23,1.14c-.51.26-.7.88-.44,1.37l6.17,12.04c.26.51.88.7,1.37.44l2.23-1.14c.51-.26.7-.88.44-1.37h0Z"/><path class="cls-11" d="m151.89,128.35l-8.31-16.22c-.34-.68-1.17-.94-1.84-.6l-3,1.53c-.68.34-.94,1.17-.6,1.84l8.31,16.22c.34.68,1.17.94,1.84.6l3.01-1.53c.68-.34.94-1.17.6-1.84h0Z"/><path class="cls-5" d="m159.1,95.49s-14.4-3.67-16.48-2.73c-2.08.94-22.45,16.89-22.45,16.89,0,0,21.55-5.51,30.13.18l8.8-14.34h0Z"/><path class="cls-5" d="m174.46,125.45s-5.43,13.82-7.42,14.97c-1.99,1.15-26.84,8.36-26.84,8.36,0,0,17.07-14.27,17.44-24.57l16.79,1.24h.03,0Z"/><path class="cls-19" d="m167.06,140.42c1.69-.97,5.91-11.22,7.08-14.17-.19-.11-.32-.16-.32-.16,0,0-4.95,11.61-8.39,12.98s-12.52,2.57-12.52,2.57c0,0,4.03-8.32,6.99-9.44s11.36-5.63,11.36-5.63l-14.69,2.19c-3.81,9.49-16.36,19.99-16.36,19.99,0,0,24.85-7.21,26.84-8.36v.02h0Z"/><path class="cls-20" d="m150.72,109.14l3.45-5.62c-1.55-2.31-5.89-6.2-16.11-1.73-9.61,4.21-15.28,6.68-17.81,7.78-.07.04-.09.08-.09.08,0,0,21.28-5.45,29.96.1l.6-.6h0Z"/><path class="cls-7" d="m146.43,120.42s-5.23-8.09-4.81-9.38,12.81-18.14,37.15-26.29c24.35-8.16,39.31-3.19,40.4-1.06s-3.53,17.55-24.87,32.39c-21.34,14.83-42.24,15.31-42.58,14.67l-5.31-10.34h.02,0Z"/><path class="cls-5" d="m183.25,111.36c5.41.51,10.2-3.47,10.69-8.88.51-5.41-3.47-10.19-8.88-10.69-5.41-.51-10.2,3.47-10.69,8.88-.5,5.41,3.47,10.19,8.88,10.69Z"/><path class="cls-6" d="m183.55,108.15c3.64.33,6.86-2.34,7.19-5.97.33-3.64-2.34-6.86-5.97-7.19s-6.86,2.34-7.19,5.97c-.33,3.64,2.34,6.86,5.97,7.19Z"/><path class="cls-15" d="m161.38,121.86c12.1,4.01,30.04-6.86,47.52-18.45-3.66,4.05-8.4,8.39-14.59,12.69-21.34,14.83-42.24,15.31-42.58,14.67l-5.31-10.34s-5.23-8.09-4.81-9.38c.22-.72,4.12-6.17,11.65-12.28-.38,13.19,2.29,21.2,8.1,23.11l.03-.02h0Z"/><path class="cls-5" d="m127.5,130.52s20.7-14.78,24.71-17.23,13.29-5.05,14.55-2.6-6.02,7.93-10.84,9.86c-4.81,1.93-28.43,9.98-28.43,9.98v-.02h0Z"/><path class="cls-10" d="m199.88,80.36c-.42,4,.29,8.15,2.25,12s5.04,6.93,8.58,8.94c7.41-8.99,9.19-16.18,8.47-17.6-.72-1.42-7.62-4.12-19.3-3.34h0Z"/><path class="cls-2" d="m210.8,92.14c.3-.59,4.76-6.06,3.69-7.35-1.06-1.28-30.81-9.26-68.91,23.97,0,0,21.16-13.86,34.47-17.45,13.31-3.59,28.19,5.77,30.72.82h.03Z"/><path class="cls-18" d="m127.62,130.45l-.12.07s23.62-8.05,28.43-9.98c4.81-1.91,12.09-7.42,10.83-9.86-.07-.14-.17-.25-.3-.35-1.98,1.98-7.26,5.49-17.85,10.59-9.12,4.4-17.68,8.1-21,9.54h0Z"/><path class="cls-7" d="m213.49,179.37l13.91,1.22-13.91,1.21c-.6.05-1.09.53-1.15,1.15l-1.21,13.91-1.22-13.91c-.05-.6-.53-1.09-1.14-1.15l-13.91-1.21,13.91-1.22c.6-.05,1.09-.53,1.14-1.14l1.22-13.91,1.21,13.91c.05.6.53,1.09,1.15,1.14Z"/><path class="cls-7" d="m62.38,108.03l9.74.85-9.74.85c-.42.04-.77.38-.8.8l-.85,9.74-.85-9.74c-.04-.42-.38-.77-.8-.8l-9.74-.85,9.74-.85c.42-.04.77-.38.8-.8l.85-9.74.85,9.74c.04.42.38.77.8.8Z"/><path class="cls-7" d="m151.05,49.72l6.96.6-6.96.6c-.31.03-.54.27-.57.57l-.6,6.96-.6-6.96c-.03-.31-.27-.54-.57-.57l-6.96-.6,6.96-.6c.31-.03.54-.27.57-.57l.6-6.96.6,6.96c.03.31.27.54.57.57Z"/></g><path class="cls-7" d="m196.08,257.03l.16.39-.89,4.6-33.33,9.87-29.33,1.86-46.14-11.93-40.86-27.37-11.35-23.57.32-.04,1.89.77,33.24,27.68,57.92,24.78s41.5-3.37,42.08-3.37,26.3-3.66,26.3-3.66Z"/></svg>