<?xml version="1.0" encoding="utf-8"?>
<!-- Generator: Adobe Illustrator 27.2.0, SVG Export Plug-In . SVG Version: 6.00 Build 0)  -->
<svg version="1.1" id="Capa_1" xmlns="http://www.w3.org/2000/svg" xmlns:xlink="http://www.w3.org/1999/xlink" x="0px" y="0px"
	 viewBox="0 0 392 433.8" style="enable-background:new 0 0 392 433.8;" xml:space="preserve">
<style type="text/css">
	.st0{clip-path:url(#SVGID_00000072267719692161947080000012292518117790645693_);}
	.st1{fill:url(#SVGID_00000143596875784077092910000015556408772371184022_);}
	.st2{opacity:0.87;fill:#FFFFFF;enable-background:new    ;}
	.st3{opacity:0.7;}
	.st4{fill:url(#SVGID_00000087384027928346585430000008697313150932562337_);}
	.st5{opacity:0.26;}
	.st6{fill:url(#SVGID_00000102516789733883259630000003941998190228722347_);}
	.st7{fill:url(#SVGID_00000088839041047954177390000002164989774029655173_);}
	.st8{fill:url(#SVGID_00000016047777017156679930000012437416927916773771_);}
	.st9{fill:url(#SVGID_00000016763891879090596780000000292219456527310260_);}
	.st10{fill:#0036E7;}
	.st11{fill:url(#SVGID_00000008848547865254899870000010511257284610204562_);}
	.st12{fill:url(#SVGID_00000119816996118874360330000008564707475548375715_);}
	.st13{fill:#FFFFFF;}
	.st14{fill:#00C4F8;}
	.st15{fill:url(#SVGID_00000176013187760912836700000016472823999218895513_);}
	.st16{fill:url(#SVGID_00000132084495279300469890000015401922347020435589_);}
	.st17{opacity:0.2;fill:url(#SVGID_00000127748597738060606850000003411012503848753546_);enable-background:new    ;}
	.st18{fill:url(#SVGID_00000081636441219283369130000004119808075577713327_);}
</style>
<g>
	<defs>
		<circle id="SVGID_1_" cx="196" cy="196" r="196"/>
	</defs>
	<clipPath id="SVGID_00000049938824330730110600000005824598792775650729_">
		<use xlink:href="#SVGID_1_"  style="overflow:visible;"/>
	</clipPath>
	<g style="clip-path:url(#SVGID_00000049938824330730110600000005824598792775650729_);">
		<g>
			
				<linearGradient id="SVGID_00000006667080800470408150000000749452782988296097_" gradientUnits="userSpaceOnUse" x1="86.8785" y1="380.6809" x2="299.9984" y2="750.4308" gradientTransform="matrix(1 0 0 1 0 -374)">
				<stop  offset="0" style="stop-color:#00FFE0"/>
				<stop  offset="1" style="stop-color:#0036E7"/>
			</linearGradient>
			<circle style="fill:url(#SVGID_00000006667080800470408150000000749452782988296097_);" cx="196" cy="196" r="196"/>
			<path class="st2" d="M204.4,155.5c0,0-178.6,56.8-183.3,136.4c-4.8,79.6,52.5,84.9,52.5,84.9l-54.3,12.3l266.4-5.8
				c0,0-132.5-68.4-128.1-136.9s60.3-83.1,60.3-83.1"/>
			<g class="st3">
				
					<linearGradient id="SVGID_00000106839340393642512790000016460090814613591698_" gradientUnits="userSpaceOnUse" x1="95.8793" y1="639.3679" x2="196.4393" y2="648.7078" gradientTransform="matrix(1 0 0 1 0 -374)">
					<stop  offset="0" style="stop-color:#00C4F8"/>
					<stop  offset="1" style="stop-color:#0036E7"/>
				</linearGradient>
				<path style="fill:url(#SVGID_00000106839340393642512790000016460090814613591698_);" d="M198.4,170.6
					c-9,4.7-17.4,10.2-25.4,16.2c-8,6-15.6,12.6-22.3,19.7c-13.5,14.2-24.2,31.1-27.6,49.1c-1.7,9-1.7,18-0.2,26.8
					c0.6,4.4,2.1,8.7,3.3,13c1.8,4.2,3.2,8.4,5.5,12.4c8.3,16.2,20.5,30.7,34.2,43.7l-24.5,22.4c-13.3-16.8-25.3-35.4-32.7-56.5
					c-7.7-20.8-9-45.1-1.7-66.1c3.6-10.5,9.2-20.1,15.7-28.5c6.6-8.4,14.2-15.8,22.2-22.3c8.1-6.5,16.7-12.1,25.7-17.1
					S188.7,174.1,198.4,170.6L198.4,170.6L198.4,170.6z"/>
			</g>
			<g class="st5">
				
					<linearGradient id="SVGID_00000016788455731140711500000016890173765474181549_" gradientUnits="userSpaceOnUse" x1="52.4797" y1="641.0436" x2="197.6097" y2="654.5136" gradientTransform="matrix(1 0 0 1 0 -374)">
					<stop  offset="0" style="stop-color:#00C4F8"/>
					<stop  offset="1" style="stop-color:#0036E7"/>
				</linearGradient>
				<path style="fill:url(#SVGID_00000016788455731140711500000016890173765474181549_);" d="M203.2,163.2
					c-22.8,9.4-44.6,21.3-64.6,35.2c-20,13.9-38.3,30.4-51.2,50.1c-6.4,9.8-11.2,20.4-13.7,31.4c-2.6,10.9-2.4,22.2,0,33
					c2.4,10.8,6.4,21.3,12.5,31c2.6,5,6.3,9.5,9.6,14.2c3.5,4.6,7.4,8.9,11.1,13.4L87,388c-3.8-5.4-7.7-10.6-11.2-16.1
					c-3.3-5.8-6.9-11.2-9.6-17.4c-6-11.8-10-25.1-11.7-38.5c-1.7-13.5-0.6-27.5,3.6-40.3c4.1-12.8,10.8-24.5,18.8-34.6
					c16.1-20.4,36.7-35.6,58.3-48C156.8,180.6,179.7,170.7,203.2,163.2L203.2,163.2L203.2,163.2z"/>
			</g>
			
				<linearGradient id="SVGID_00000116204356208605809390000000707247901814361526_" gradientUnits="userSpaceOnUse" x1="62.1891" y1="626.4222" x2="211.7191" y2="683.5623" gradientTransform="matrix(1 0 0 1 0 -374)">
				<stop  offset="0" style="stop-color:#6F00D4"/>
				<stop  offset="1" style="stop-color:#5800E2"/>
			</linearGradient>
			<path style="fill:url(#SVGID_00000116204356208605809390000000707247901814361526_);" d="M215.1,160.4
				c-13.1,5.8-25.6,12.7-37.5,20.3c-11.9,7.6-23.3,15.9-33.6,25.1c-10.3,9.2-19.6,19.3-26.8,30.3c-7.2,10.9-12.2,22.7-14.1,34.4
				c-3.8,23.6,5.8,46.2,20.9,66c1,1.2,1.8,2.5,2.8,3.7l3.2,3.6l6.2,7.1c4.6,4.5,9.2,9.1,14,13.5c5.1,4.2,9.9,8.5,15.1,12.6l16,12
				L143,433.8l-15.7-16.7c-5.1-5.7-10-11.8-14.9-17.7c-4.8-6.2-9.3-12.6-13.8-19l-6.2-10.2l-3.1-5.1c-1-1.7-1.8-3.6-2.8-5.4
				L81,348.8c-1.6-3.8-3-7.7-4.4-11.5c-0.7-1.9-1.5-3.8-2-5.8l-1.6-6.1c-1-4-2.1-8-2.6-12.3c-2.7-16.6-1.5-34.3,4.1-50.1
				c5.5-15.9,14.7-29.5,25.3-40.7c10.7-11.3,22.7-20.4,35.2-28.2c12.5-7.8,25.7-14.3,39-19.8C187.5,168.6,201.1,163.9,215.1,160.4
				L215.1,160.4L215.1,160.4z"/>
			
				<linearGradient id="SVGID_00000123419729114743364050000005288158228056815801_" gradientUnits="userSpaceOnUse" x1="189.3376" y1="531.6306" x2="200.2276" y2="552.9006" gradientTransform="matrix(1 0 0 1 0 -374)">
				<stop  offset="0" style="stop-color:#00C4F8"/>
				<stop  offset="1" style="stop-color:#0036E7"/>
			</linearGradient>
			<path style="fill:url(#SVGID_00000123419729114743364050000005288158228056815801_);" d="M202.6,175.9l-9.5-18.5
				c-0.4-0.8-1.3-1.1-2.1-0.7l-3.4,1.8c-0.8,0.4-1.1,1.3-0.7,2.1l9.5,18.5c0.4,0.8,1.3,1.1,2.1,0.7l3.4-1.8
				C202.7,177.7,203,176.7,202.6,175.9L202.6,175.9z"/>
			
				<linearGradient id="SVGID_00000051367575606101604860000012676953683824296096_" gradientUnits="userSpaceOnUse" x1="193.7027" y1="524.7558" x2="208.3852" y2="553.4302" gradientTransform="matrix(1 0 0 1 0 -374)">
				<stop  offset="0" style="stop-color:#113EBC"/>
				<stop  offset="1" style="stop-color:#221668"/>
			</linearGradient>
			<path style="fill:url(#SVGID_00000051367575606101604860000012676953683824296096_);" d="M211.6,175.4l-12.8-24.9
				c-0.5-1-1.8-1.4-2.8-0.9l-4.6,2.4c-1,0.5-1.4,1.8-0.9,2.8l12.8,24.9c0.5,1,1.8,1.4,2.8,0.9l4.6-2.4
				C211.7,177.7,212.1,176.4,211.6,175.4L211.6,175.4z"/>
			<path class="st10" d="M222.7,124.9c0,0-22.1-5.7-25.3-4.2c-3.2,1.4-34.5,26-34.5,26s33.1-8.5,46.3,0.3L222.7,124.9L222.7,124.9z"
				/>
			<path class="st10" d="M246.3,171c0,0-8.4,21.2-11.4,23c-3.1,1.8-41.2,12.9-41.2,12.9s26.2-21.9,26.8-37.8L246.3,171L246.3,171
				L246.3,171z"/>
			
				<linearGradient id="SVGID_00000029755283494094809460000002419951642285149065_" gradientUnits="userSpaceOnUse" x1="214.1362" y1="552.5269" x2="224.7162" y2="573.2068" gradientTransform="matrix(1 0 0 1 0 -374)">
				<stop  offset="0" style="stop-color:#113EBC"/>
				<stop  offset="1" style="stop-color:#221668"/>
			</linearGradient>
			<path style="fill:url(#SVGID_00000029755283494094809460000002419951642285149065_);" d="M234.9,194c2.6-1.5,9.1-17.2,10.9-21.8
				c-0.3-0.2-0.5-0.2-0.5-0.2s-7.6,17.9-12.9,19.9c-5.3,2.1-19.2,3.9-19.2,3.9s6.2-12.8,10.8-14.5c4.6-1.7,17.5-8.6,17.5-8.6
				l-22.6,3.4c-5.9,14.6-25.1,30.7-25.1,30.7S231.9,195.7,234.9,194L234.9,194L234.9,194z"/>
			
				<linearGradient id="SVGID_00000142886432629394073620000011626286269962627712_" gradientUnits="userSpaceOnUse" x1="189.2781" y1="505.5799" x2="188.8881" y2="518.7399" gradientTransform="matrix(1 0 0 1 0 -374)">
				<stop  offset="0" style="stop-color:#113EBC"/>
				<stop  offset="1" style="stop-color:#221668"/>
			</linearGradient>
			<path style="fill:url(#SVGID_00000142886432629394073620000011626286269962627712_);" d="M209.8,145.9l5.3-8.6
				c-2.4-3.5-9.1-9.5-24.8-2.7c-14.8,6.5-23.5,10.3-27.4,12c-0.1,0.1-0.1,0.1-0.1,0.1s32.7-8.4,46.1,0.1L209.8,145.9L209.8,145.9z"
				/>
			<path class="st13" d="M203.2,163.2c0,0-8-12.4-7.4-14.4c0.6-2,19.7-27.9,57.1-40.4s60.4-4.9,62.1-1.6c1.7,3.3-5.4,27-38.2,49.8
				s-64.9,23.5-65.4,22.6L203.2,163.2L203.2,163.2L203.2,163.2z"/>
			<path class="st10" d="M259.8,149.3c8.3,0.8,15.7-5.3,16.4-13.6c0.8-8.3-5.3-15.7-13.6-16.4c-8.3-0.8-15.7,5.3-16.4,13.6
				C245.4,141.2,251.5,148.5,259.8,149.3z"/>
			<path class="st14" d="M260.3,144.4c5.6,0.5,10.5-3.6,11.1-9.2s-3.6-10.5-9.2-11.1s-10.5,3.6-11.1,9.2S254.7,143.9,260.3,144.4z"
				/>
			
				<linearGradient id="SVGID_00000024717769112827154630000014747117797421685945_" gradientUnits="userSpaceOnUse" x1="245.9731" y1="498.6797" x2="253.5631" y2="590.3898" gradientTransform="matrix(1 0 0 1 0 -374)">
				<stop  offset="0" style="stop-color:#FFFFFF"/>
				<stop  offset="1" style="stop-color:#221668"/>
			</linearGradient>
			<path style="fill:url(#SVGID_00000024717769112827154630000014747117797421685945_);" d="M226.2,165.4
				c18.6,6.2,46.2-10.6,73-28.4c-5.6,6.2-12.9,12.9-22.4,19.5c-32.8,22.8-64.9,23.5-65.4,22.6l-8.2-15.9c0,0-8.1-12.4-7.4-14.4
				c0.3-1.1,6.3-9.5,17.9-18.9C213.1,150.2,217.2,162.5,226.2,165.4L226.2,165.4L226.2,165.4z"/>
			<path class="st10" d="M174.1,178.8c0,0,31.8-22.7,38-26.5c6.2-3.8,20.4-7.8,22.4-4s-9.3,12.2-16.6,15.2S174.1,178.8,174.1,178.8
				L174.1,178.8z"/>
			
				<linearGradient id="SVGID_00000143584241422516360480000008518360946394931636_" gradientUnits="userSpaceOnUse" x1="293.6982" y1="471.3901" x2="310.2168" y2="503.6474" gradientTransform="matrix(1 0 0 1 0 -374)">
				<stop  offset="0" style="stop-color:#0086FF"/>
				<stop  offset="1" style="stop-color:#4626C7"/>
			</linearGradient>
			<path style="fill:url(#SVGID_00000143584241422516360480000008518360946394931636_);" d="M285.4,101.7
				c-0.6,6.2,0.5,12.5,3.5,18.4c3,5.9,7.7,10.6,13.2,13.7c11.4-13.8,14.1-24.9,13-27.1C313.9,104.6,303.3,100.5,285.4,101.7
				L285.4,101.7z"/>
			
				<radialGradient id="SVGID_00000086676603392178616520000004975990372050003643_" cx="-963.0232" cy="12.6622" r="1" gradientTransform="matrix(38.4828 75.1049 -75.1138 38.4873 38227.1836 72002.4453)" gradientUnits="userSpaceOnUse">
				<stop  offset="0" style="stop-color:#0086FF;stop-opacity:0"/>
				<stop  offset="1" style="stop-color:#8A56ED"/>
			</radialGradient>
			<path style="opacity:0.2;fill:url(#SVGID_00000086676603392178616520000004975990372050003643_);enable-background:new    ;" d="
				M302.1,119.8c0.5-0.9,7.3-9.3,5.7-11.3c-1.6-2-47.4-14.2-105.9,36.8c0,0,32.5-21.3,53-26.8C275.4,113,298.2,127.4,302.1,119.8
				L302.1,119.8L302.1,119.8z"/>
			
				<linearGradient id="SVGID_00000023980393727415278450000013260677584257511843_" gradientUnits="userSpaceOnUse" x1="204.0612" y1="537.0694" x2="207.1325" y2="543.0518" gradientTransform="matrix(1 0 0 1 0 -374)">
				<stop  offset="0" style="stop-color:#113EBC"/>
				<stop  offset="1" style="stop-color:#221668"/>
			</linearGradient>
			<path style="fill:url(#SVGID_00000023980393727415278450000013260677584257511843_);" d="M174.3,178.6l-0.2,0.1
				c0,0,36.3-12.4,43.7-15.3c7.4-2.9,18.6-11.4,16.6-15.2c-0.1-0.2-0.3-0.4-0.4-0.6c-3,3-11.2,8.4-27.4,16.3
				C192.6,170.7,179.4,176.4,174.3,178.6L174.3,178.6z"/>
			<path class="st13" d="M13.4,334.5c-31.9-46.2,5.4-96.5,45.4-122.2c13.3-9.1,27.4-16.6,42-23.2c-13.8,8.1-27.2,16.5-40,26
				C23.3,242.4-10.6,287.4,13.4,334.5L13.4,334.5z"/>
			<path class="st13" d="M37.6,392.6c19.6,1.8,37-12.6,38.8-32.2s-12.6-37-32.2-38.8c-19.6-1.8-37,12.6-38.8,32.2
				C3.6,373.4,18,390.7,37.6,392.6L37.6,392.6z"/>
			<path class="st13" d="M59.5,376.2c19.6,1.8,37-12.6,38.8-32.2s-12.6-37-32.2-38.8c-19.6-1.8-37,12.6-38.8,32.2
				C25.5,357.1,39.9,374.4,59.5,376.2z"/>
			<path class="st13" d="M102.2,368.4c19.6,1.8,37-12.6,38.8-32.2s-12.6-37-32.2-38.8c-19.6-1.8-37,12.6-38.8,32.2
				S82.6,366.6,102.2,368.4z"/>
			<path class="st13" d="M185.8,387.3c19.6,1.8,37-12.6,38.8-32.2s-12.6-37-32.2-38.8c-19.6-1.8-37,12.6-38.8,32.2
				C151.8,368.1,166.2,385.5,185.8,387.3L185.8,387.3z"/>
			<path class="st13" d="M132.2,395.2c19.6,1.8,37-12.6,38.8-32.2c1.8-19.6-12.6-37-32.2-38.8c-19.6-1.8-37,12.6-38.8,32.2
				S112.6,393.4,132.2,395.2L132.2,395.2z"/>
			<path class="st13" d="M240.9,404.6c19.6,1.8,37-12.6,38.8-32.2c1.8-19.6-12.6-37-32.2-38.8c-19.6-1.8-37,12.6-38.8,32.2
				S221.3,402.8,240.9,404.6z"/>
			<path class="st13" d="M179.3,419.2c19.6,1.8,37-12.6,38.8-32.2c1.8-19.6-12.6-37-32.2-38.8c-19.6-1.8-37,12.6-38.8,32.2
				C145.3,400,159.7,417.4,179.3,419.2L179.3,419.2z"/>
			<path class="st13" d="M156.4,343.4c11.8,1.1,22.2-7.6,23.3-19.4c1.1-11.8-7.6-22.2-19.4-23.3c-11.8-1.1-22.2,7.6-23.3,19.4
				C135.9,331.9,144.6,342.3,156.4,343.4L156.4,343.4z"/>
			<path class="st13" d="M138.9,319.8c8.4,0.8,15.7-5.4,16.5-13.7c0.8-8.3-5.4-15.7-13.7-16.5c-8.4-0.8-15.7,5.4-16.5,13.7
				C124.4,311.6,130.5,319,138.9,319.8L138.9,319.8z"/>
			<path class="st13" d="M45.4,308.9c6.4,0.6,12.1-4.1,12.7-10.5s-4.1-12.1-10.5-12.7c-6.4-0.6-12.1,4.1-12.7,10.5
				C34.2,302.6,38.9,308.3,45.4,308.9z"/>
			<path class="st13" d="M124.8,287.4c6.4,0.6,12.1-4.1,12.7-10.5s-4.1-12.1-10.5-12.7c-6.4-0.6-12.1,4.1-12.7,10.5
				C113.7,281.1,118.4,286.8,124.8,287.4L124.8,287.4z"/>
			<path class="st13" d="M186,342.2c11.8,1.1,22.2-7.6,23.3-19.4c1.1-11.8-7.6-22.2-19.4-23.3c-11.8-1.1-22.2,7.6-23.3,19.4
				S174.2,341.1,186,342.2z"/>
			<path class="st13" d="M31.3,344.9c11.8,1.1,22.2-7.6,23.3-19.4c1.1-11.8-7.6-22.2-19.4-23.3c-11.8-1.1-22.2,7.6-23.3,19.4
				C10.9,333.3,19.5,343.8,31.3,344.9z"/>
			<path class="st13" d="M67.3,328c11.8,1.1,22.2-7.6,23.3-19.4c1.1-11.8-7.6-22.2-19.4-23.3c-11.8-1.1-22.2,7.6-23.3,19.4
				C46.9,316.4,55.5,326.9,67.3,328z"/>
			<path class="st13" d="M94,323.9c11.8,1.1,22.2-7.6,23.3-19.4c1.1-11.8-7.6-22.2-19.4-23.3c-11.8-1.1-22.2,7.6-23.3,19.4
				C73.5,312.4,82.2,322.8,94,323.9z"/>
			<path class="st13" d="M121.9,333.5c8.8,0.8,16.6-5.6,17.4-14.4c0.8-8.8-5.6-16.6-14.4-17.4c-8.8-0.8-16.6,5.6-17.4,14.4
				C106.7,324.9,113.2,332.7,121.9,333.5z"/>
			<path class="st13" d="M317.6,252.1L339,254l-21.4,1.9c-0.9,0.1-1.7,0.8-1.8,1.8L314,279l-1.9-21.4c-0.1-0.9-0.8-1.7-1.8-1.8
				L289,254l21.4-1.9c0.9-0.1,1.7-0.8,1.8-1.8L314,229l1.9,21.4C315.9,251.3,316.7,252.1,317.6,252.1z"/>
			<path class="st13" d="M74,144.2l15,1.3l-15,1.3c-0.7,0.1-1.2,0.6-1.2,1.2l-1.3,15l-1.3-15c-0.1-0.6-0.6-1.2-1.2-1.2l-15-1.3
				l15-1.3c0.7-0.1,1.2-0.6,1.2-1.2l1.3-15l1.3,15C72.9,143.6,73.4,144.1,74,144.2z"/>
			<path class="st13" d="M210.3,54.6l10.7,0.9l-10.7,0.9c-0.5,0-0.8,0.4-0.9,0.9L208.5,68l-0.9-10.7c0-0.5-0.4-0.8-0.9-0.9L196,55.5
				l10.7-0.9c0.5,0,0.8-0.4,0.9-0.9l0.9-10.7l0.9,10.7C209.5,54.2,209.8,54.5,210.3,54.6z"/>
		</g>
	</g>
</g>
</svg>
