<?xml version="1.0" encoding="UTF-8"?><svg id="Capa_1" xmlns="http://www.w3.org/2000/svg" xmlns:xlink="http://www.w3.org/1999/xlink" viewBox="0 0 474 275"><defs><style>.cls-1{fill:none;}.cls-2{clip-path:url(#clippath);}.cls-3{fill:#0036e7;}.cls-4{fill:#00c4f8;}.cls-5{fill:#fff;}.cls-6{fill:#e0e0e0;}.cls-7{clip-path:url(#clippath-1);}.cls-8{clip-path:url(#clippath-2);}.cls-9{fill:url(#Degradado_sin_nombre_8);isolation:isolate;opacity:.2;}.cls-10{fill:url(#Degradado_sin_nombre_6);}.cls-11{fill:url(#Degradado_sin_nombre_7);}.cls-12{fill:url(#Degradado_sin_nombre_2);}.cls-13{fill:url(#Degradado_sin_nombre_3);}.cls-14{fill:url(#Degradado_sin_nombre_9);}.cls-15{fill:url(#Degradado_sin_nombre_4);}.cls-16{fill:url(#Degradado_sin_nombre_5);}.cls-17{fill:#f4a840;opacity:.5;}.cls-18{fill:url(#Degradado_sin_nombre);}</style><linearGradient id="Degradado_sin_nombre" x1="437.98" y1="613.6" x2="14.58" y2="740.84" gradientTransform="translate(0 -582)" gradientUnits="userSpaceOnUse"><stop offset="0" stop-color="#1a4ae9"/><stop offset="1" stop-color="#00ffe0"/></linearGradient><clipPath id="clippath"><rect class="cls-1" x="62" y="30" width="350" height="124" rx="20" ry="20"/></clipPath><clipPath id="clippath-1"><rect class="cls-1" x="62" y="30" width="350" height="124" rx="20" ry="20"/></clipPath><clipPath id="clippath-2"><rect class="cls-1" x="199.67" y="65.77" width="86.56" height="66.79" transform="translate(27.57 249.07) rotate(-57.04)"/></clipPath><linearGradient id="Degradado_sin_nombre_2" x1="232.31" y1="706.79" x2="246.29" y2="706.93" gradientTransform="translate(0 -582)" gradientUnits="userSpaceOnUse"><stop offset="0" stop-color="#00c4f8"/><stop offset="1" stop-color="#0036e7"/></linearGradient><linearGradient id="Degradado_sin_nombre_3" x1="229.91" y1="702.69" x2="248.74" y2="702.87" gradientTransform="translate(0 -582)" gradientUnits="userSpaceOnUse"><stop offset="0" stop-color="#113ebc"/><stop offset="1" stop-color="#221668"/></linearGradient><linearGradient id="Degradado_sin_nombre_4" x1="249.81" y1="699.66" x2="263.41" y2="699.78" gradientTransform="translate(0 -582)" gradientUnits="userSpaceOnUse"><stop offset="0" stop-color="#113ebc"/><stop offset="1" stop-color="#221668"/></linearGradient><linearGradient id="Degradado_sin_nombre_5" x1="218.81" y1="699.75" x2="225.51" y2="703.52" gradientTransform="translate(0 -582)" gradientUnits="userSpaceOnUse"><stop offset="0" stop-color="#113ebc"/><stop offset="1" stop-color="#221668"/></linearGradient><linearGradient id="Degradado_sin_nombre_6" x1="230.61" y1="668.59" x2="280.12" y2="689.53" gradientTransform="translate(0 -582)" gradientUnits="userSpaceOnUse"><stop offset="0" stop-color="#fff"/><stop offset="1" stop-color="#221668"/></linearGradient><linearGradient id="Degradado_sin_nombre_7" x1="229.44" y1="636.48" x2="250.61" y2="636.68" gradientTransform="translate(0 -582)" gradientUnits="userSpaceOnUse"><stop offset="0" stop-color="#0086ff"/><stop offset="1" stop-color="#4626c7"/></linearGradient><radialGradient id="Degradado_sin_nombre_8" cx="-870.58" cy="56.33" fx="-870.58" fy="56.33" r="1" gradientTransform="translate(43175.43 -2263.39) rotate(.53) scale(49.29)" gradientUnits="userSpaceOnUse"><stop offset="0" stop-color="#0086ff" stop-opacity="0"/><stop offset="1" stop-color="#8a56ed"/></radialGradient><linearGradient id="Degradado_sin_nombre_9" x1="239.12" y1="700.66" x2="243.04" y2="700.69" gradientTransform="translate(0 -582)" gradientUnits="userSpaceOnUse"><stop offset="0" stop-color="#113ebc"/><stop offset="1" stop-color="#221668"/></linearGradient></defs><path class="cls-18" d="m62,50c0-11.05,8.95-20,20-20h310c11.05,0,20,8.95,20,20v84c0,11.05-8.95,20-20,20H82c-11.05,0-20-8.95-20-20V50Z"/><g class="cls-2"><g><circle class="cls-17" cx="237.5" cy="137.5" r="51.5"/><circle class="cls-17" cx="237.5" cy="137.5" r="137.5"/><circle class="cls-17" cx="237.5" cy="137.5" r="107.5"/><circle class="cls-17" cx="237.5" cy="137.5" r="62.5"/></g></g><g class="cls-7"><ellipse class="cls-5" cx="237" cy="155.5" rx="237" ry="27.5"/></g><ellipse class="cls-6" cx="239" cy="135.5" rx="21" ry="3.5"/><g class="cls-8"><g><path class="cls-12" d="m245.39,122.88l-12.14-.11c-.51,0-.92.4-.93.91l-.02,2.24c0,.51.4.92.91.93l12.14.11c.51,0,.92-.4.93-.91l.02-2.25c0-.51-.4-.92-.91-.93h0Z"/><path class="cls-13" d="m247.53,118.11l-16.36-.15c-.68,0-1.24.54-1.24,1.22l-.03,3.03c0,.68.54,1.24,1.22,1.24l16.36.15c.68,0,1.24-.54,1.24-1.22l.03-3.03c0-.68-.54-1.23-1.22-1.24Z"/><path class="cls-3" d="m224.43,98.68s-8.92,9.92-9.04,11.96,4.08,24.89,4.08,24.89c0,0,4.6-19.43,12.69-23.88l-7.74-12.97h0Z"/><path class="cls-3" d="m254.66,98.95s8.73,10.08,8.81,12.14c.09,2.06-4.53,24.82-4.53,24.82,0,0-4.23-19.52-12.27-24.1l7.98-12.84v-.02h.01Z"/><path class="cls-15" d="m263.47,111.09c-.08-1.75-6.46-9.38-8.32-11.54-.16.1-.26.18-.26.18,0,0,7.18,8.77,6.82,12.08-.35,3.31-3.17,11.02-3.17,11.02,0,0-4.94-6.67-4.59-9.49.34-2.83.26-11.37.26-11.37l-4.37,12.59c5.96,6.99,9.08,21.34,9.08,21.34,0,0,4.62-22.76,4.53-24.82h.02Z"/><path class="cls-16" d="m231.8,111.02l-3.03-5.08c-2.48.28-7.39,2.1-8.09,12.09-.65,9.4-1.05,14.93-1.23,17.4.02.08.02.11.02.11,0,0,4.53-19.19,12.56-23.78l-.23-.73h0Z"/><path class="cls-5" d="m238.98,119.15s-8.61.79-9.46-.09-9.09-17.74-5.43-40.49c3.66-22.76,13.86-32.6,16.01-32.57,2.15.02,12.49,10.12,15.4,33.27,2.9,23.15-5.42,39.97-6.07,39.97l-10.44-.09h0Z"/><path class="cls-3" d="m247.12,86.08c2.65-4.09,1.49-9.55-2.6-12.2-4.09-2.65-9.55-1.49-12.21,2.6-2.65,4.09-1.49,9.55,2.6,12.2,4.09,2.65,9.55,1.49,12.21-2.6Z"/><path class="cls-4" d="m244.69,84.51c1.78-2.75,1-6.43-1.75-8.21s-6.43-1-8.21,1.75-1,6.43,1.75,8.21,6.43,1,8.21-1.75Z"/><path class="cls-10" d="m246.34,107.87c8.23-7.95,7.06-26.74,5.12-45.47,1.7,4.59,3.17,10.18,4.01,16.89,2.9,23.15-5.42,39.97-6.07,39.97l-10.44-.09s-8.61.79-9.46-.09c-.48-.48-3.19-5.84-4.92-14.38,10.34,5.8,17.81,7.01,21.75,3.2v-.03h.01Z"/><path class="cls-3" d="m239.13,138.4s-3.13-22.62-3.4-26.83c-.28-4.2,1.52-12.67,3.99-12.65,2.48.02,3.8,8.1,3.34,12.73-.47,4.63-3.91,26.76-3.91,26.76h-.02Z"/><path class="cls-11" d="m229.39,59.95c3.01,2,6.6,3.17,10.48,3.21,3.88.05,7.61-1.11,10.69-3.1-4.06-9.64-9.04-14.05-10.47-14.07-1.43-.02-6.44,4.34-10.7,13.95h0Z"/><path class="cls-9" d="m243.3,56.19c-.34-.48-2.84-6.31-4.3-6s-20.19,20.62-9.64,64.77c0,0-2.21-22.61.48-34.68,2.69-12.08,16.33-20.01,13.45-24.08h.01Z"/><path class="cls-14" d="m239.11,138.29v.12s3.45-22.13,3.92-26.76c.48-4.62-.86-12.7-3.33-12.73-.14,0-.28.03-.41.09.75,2.39,1.34,8.06.99,18.6-.31,9.08-.93,17.43-1.17,20.67h0Z"/><path class="cls-5" d="m280.68,95.31l3.51.31-3.51.31c-.15.01-.27.14-.29.29l-.31,3.51-.31-3.51c-.01-.15-.13-.28-.29-.29l-3.51-.31,3.51-.31c.15-.01.27-.14.29-.29l.31-3.51.31,3.51c.01.15.13.28.29.29Z"/></g></g></svg>