<?xml version="1.0" encoding="UTF-8"?><svg id="Capa_1" xmlns="http://www.w3.org/2000/svg" xmlns:xlink="http://www.w3.org/1999/xlink" viewBox="0 0 350 184"><defs><style>.cls-1{fill:none;}.cls-2{clip-path:url(#clippath);}.cls-3{fill:#0036e7;}.cls-4{fill:#00c4f8;}.cls-5{fill:#fff;}.cls-6{fill:#e0e0e0;}.cls-7{clip-path:url(#clippath-1);}.cls-8{clip-path:url(#clippath-2);}.cls-9{fill:url(#Degradado_sin_nombre_8);isolation:isolate;opacity:.2;}.cls-10{fill:url(#Degradado_sin_nombre_6);}.cls-11{fill:url(#Degradado_sin_nombre_7);}.cls-12{fill:url(#Degradado_sin_nombre_2);}.cls-13{fill:url(#Degradado_sin_nombre_3);}.cls-14{fill:url(#Degradado_sin_nombre_9);}.cls-15{fill:url(#Degradado_sin_nombre_4);}.cls-16{fill:url(#Degradado_sin_nombre_5);}.cls-17{fill:url(#Degradado_sin_nombre);}</style><linearGradient id="Degradado_sin_nombre" x1="301.18" y1="2125.54" x2="-32.31" y2="2189.6" gradientTransform="translate(0 2232.78) scale(1 -1)" gradientUnits="userSpaceOnUse"><stop offset="0" stop-color="#0033e7"/><stop offset="1" stop-color="#00ffe0"/></linearGradient><clipPath id="clippath"><rect class="cls-1" x="125.09" y="49.71" width="105.41" height="81.31" transform="translate(5.25 190.38) rotate(-57.04)"/></clipPath><linearGradient id="Degradado_sin_nombre_2" x1="164.82" y1="2111.26" x2="181.85" y2="2111.11" gradientTransform="translate(0 2232.78) scale(1 -1)" gradientUnits="userSpaceOnUse"><stop offset="0" stop-color="#00c4f8"/><stop offset="1" stop-color="#0036e7"/></linearGradient><linearGradient id="Degradado_sin_nombre_3" x1="161.91" y1="2116.24" x2="184.85" y2="2116.03" gradientTransform="translate(0 2232.78) scale(1 -1)" gradientUnits="userSpaceOnUse"><stop offset="0" stop-color="#113ebc"/><stop offset="1" stop-color="#221668"/></linearGradient><linearGradient id="Degradado_sin_nombre_4" x1="186.14" y1="2120.11" x2="202.7" y2="2119.96" gradientTransform="translate(0 2232.78) scale(1 -1)" gradientUnits="userSpaceOnUse"><stop offset="0" stop-color="#113ebc"/><stop offset="1" stop-color="#221668"/></linearGradient><linearGradient id="Degradado_sin_nombre_5" x1="148.37" y1="2119.81" x2="156.53" y2="2115.21" gradientTransform="translate(0 2232.78) scale(1 -1)" gradientUnits="userSpaceOnUse"><stop offset="0" stop-color="#113ebc"/><stop offset="1" stop-color="#221668"/></linearGradient><linearGradient id="Degradado_sin_nombre_6" x1="162.75" y1="2157.78" x2="223.04" y2="2132.28" gradientTransform="translate(0 2232.78) scale(1 -1)" gradientUnits="userSpaceOnUse"><stop offset="0" stop-color="#fff"/><stop offset="1" stop-color="#221668"/></linearGradient><linearGradient id="Degradado_sin_nombre_7" x1="161.33" y1="2196.85" x2="187.13" y2="2196.61" gradientTransform="translate(0 2232.78) scale(1 -1)" gradientUnits="userSpaceOnUse"><stop offset="0" stop-color="#0086ff"/><stop offset="1" stop-color="#4626c7"/></linearGradient><radialGradient id="Degradado_sin_nombre_8" cx="-702.79" cy="1494.9" fx="-702.79" fy="1494.9" r="1" gradientTransform="translate(41523.92 90226.28) rotate(.53) scale(60.03 -60.03)" gradientUnits="userSpaceOnUse"><stop offset="0" stop-color="#0086ff" stop-opacity="0"/><stop offset="1" stop-color="#8a56ed"/></radialGradient><linearGradient id="Degradado_sin_nombre_9" x1="173.11" y1="2118.73" x2="177.89" y2="2118.68" gradientTransform="translate(0 2232.78) scale(1 -1)" gradientUnits="userSpaceOnUse"><stop offset="0" stop-color="#113ebc"/><stop offset="1" stop-color="#221668"/></linearGradient><clipPath id="clippath-1"><rect class="cls-1" width="350" height="184" rx="20" ry="20"/></clipPath><clipPath id="clippath-2"><rect class="cls-1" width="350" height="166" rx="20" ry="20"/></clipPath></defs><path class="cls-17" d="m20,0h310c11,0,20,9,20,20v126c0,11-9,20-20,20H20c-11,0-20-9-20-20V20C0,9,9,0,20,0Z"/><ellipse class="cls-6" cx="173" cy="135.5" rx="23" ry="3.5"/><g class="cls-2"><g><path class="cls-12" d="m180.8,119.2l-14.8-.1c-.6,0-1.1.5-1.1,1.1v2.7c0,.6.5,1.1,1.1,1.1l14.8.1c.6,0,1.1-.5,1.1-1.1v-2.7c0-.6-.5-1.1-1.1-1.1h0Z"/><path class="cls-13" d="m183.4,113.4l-19.9-.2c-.8,0-1.5.7-1.5,1.5v3.7c0,.8.7,1.5,1.5,1.5l19.9.2c.8,0,1.5-.7,1.5-1.5v-3.7c-.1-.8-.7-1.5-1.5-1.5h0Z"/><path class="cls-3" d="m155.2,89.7s-10.9,12.1-11,14.6,5,30.3,5,30.3c0,0,5.6-23.7,15.5-29.1l-9.5-15.8h0Z"/><path class="cls-3" d="m192,90.1s10.6,12.3,10.7,14.8-5.5,30.2-5.5,30.2c0,0-5.2-23.8-14.9-29.3l9.7-15.7h0Z"/><path class="cls-15" d="m202.8,104.8c-.1-2.1-7.9-11.4-10.1-14.1-.2.1-.3.2-.3.2,0,0,8.7,10.7,8.3,14.7s-3.9,13.4-3.9,13.4c0,0-6-8.1-5.6-11.6.4-3.4.3-13.9.3-13.9l-5.3,15.3c7.3,8.5,11.1,26,11.1,26,0,0,5.5-27.5,5.5-30h0Z"/><path class="cls-16" d="m164.2,104.8l-3.7-6.2c-3,.3-9,2.6-9.9,14.7-.8,11.4-1.3,18.2-1.5,21.2v.1s5.5-23.4,15.3-29l-.2-.8h0Z"/><path class="cls-5" d="m173,114.7s-10.5,1-11.5-.1-11.1-21.6-6.6-49.3,16.9-39.7,19.5-39.7,15.2,12.3,18.8,40.5-6.6,48.7-7.4,48.7l-12.8-.1h0Z"/><path class="cls-3" d="m182.9,74.4c3.2-5,1.8-11.6-3.2-14.9s-11.6-1.8-14.9,3.2c-3.2,5-1.8,11.6,3.2,14.9,5,3.2,11.6,1.8,14.9-3.2Z"/><path class="cls-4" d="m179.9,72.5c2.2-3.3,1.2-7.8-2.1-10-3.4-2.2-7.8-1.2-10,2.1s-1.2,7.8,2.1,10c3.4,2.2,7.8,1.2,10-2.1h0Z"/><path class="cls-10" d="m181.9,100.9c10-9.7,8.6-32.6,6.2-55.4,2.1,5.6,3.9,12.4,4.9,20.6,3.5,28.2-6.6,48.7-7.4,48.7l-12.7-.1s-10.5,1-11.5-.1c-.6-.6-3.9-7.1-6-17.5,12.6,7,21.7,8.5,26.5,3.8h0Z"/><path class="cls-3" d="m173.1,138.1s-3.8-27.6-4.1-32.7,1.9-15.4,4.9-15.4,4.6,9.9,4.1,15.5-4.9,32.6-4.9,32.6h0Z"/><path class="cls-11" d="m161.3,42.6c3.7,2.4,8,3.8,12.8,3.9,4.7.1,9.3-1.4,13-3.8-4.9-11.7-11-17.1-12.8-17.1-1.7,0-7.8,5.3-13,17Z"/><path class="cls-9" d="m178.2,38c-.4-.6-3.5-7.7-5.2-7.3-1.8.4-24.6,25.1-11.7,78.9,0,0-2.7-27.5.6-42.2,3.2-14.8,19.8-24.4,16.3-29.4h0Z"/><path class="cls-14" d="m173.1,138v.1s4.2-26.9,4.8-32.6c.6-5.6-1-15.5-4.1-15.5-.2,0-.3,0-.5.1.9,2.9,1.6,9.8,1.2,22.7-.3,11-1.1,21.2-1.4,25.2h0Z"/><path class="cls-5" d="m223.7,85.6l4.3.4-4.3.4c-.2,0-.3.2-.4.3l-.4,4.3-.4-4.3c0-.2-.2-.3-.4-.3l-4.3-.4,4.3-.4c.2,0,.3-.2.4-.4l.4-4.3.4,4.3c.1.3.2.4.4.4Z"/></g></g><path class="cls-5" d="m97.2,50.9l12.8,1.1-12.8,1.1c-.6.1-1,.5-1,1.1l-1.2,12.8-1.1-12.8c-.1-.6-.5-1-1.1-1.1l-12.8-1.1,12.8-1.1c.6-.1,1-.5,1.1-1.1l1.1-12.8,1.1,12.8c.1.6.5,1,1.1,1.1Z"/><path class="cls-5" d="m263.2,32.4l6.8.6-6.8.6c-.3,0-.5.3-.6.6l-.6,6.8-.6-6.8c0-.3-.3-.5-.6-.6l-6.8-.6,6.8-.6c.3,0,.5-.3.6-.6l.6-6.8.6,6.8c0,.3.3.6.6.6Z"/><g class="cls-7"><g><circle class="cls-5" cx="286" cy="156" r="36"/><circle class="cls-5" cx="334" cy="127" r="36"/><circle class="cls-5" cx="291" cy="118" r="15"/><circle class="cls-5" cx="350" cy="84" r="15"/><circle class="cls-5" cx="325" cy="93" r="15"/><circle class="cls-5" cx="253" cy="142" r="15"/><circle class="cls-5" cx="334" cy="79" r="9"/><circle class="cls-5" cx="293" cy="106" r="9"/><circle class="cls-5" cx="322" cy="77" r="6"/><circle class="cls-5" cx="250" cy="125" r="6"/><circle class="cls-5" cx="275" cy="113" r="4"/><circle class="cls-5" cx="302" cy="91" r="4"/><circle class="cls-5" cx="304" cy="104" r="6"/><circle class="cls-5" cx="262" cy="128" r="9"/><circle class="cls-5" cx="25" cy="143" r="36"/><circle class="cls-5" cx="3" cy="112" r="18"/><circle class="cls-5" cx="68" cy="144" r="18"/><circle class="cls-5" cx="59" cy="131" r="11"/><circle class="cls-5" cx="57" cy="127" r="11"/><circle class="cls-5" cx="30" cy="102" r="11"/><circle class="cls-5" cx="42" cy="109" r="9"/><circle class="cls-5" cx="16" cy="102" r="9"/><circle class="cls-5" cx="59" cy="106" r="5"/><circle class="cls-5" cx="71" cy="125" r="5"/><circle class="cls-5" cx="24" cy="93" r="5"/></g></g><g class="cls-8"><circle class="cls-5" cx="172.5" cy="679.5" r="554.5"/></g></svg>