<?xml version="1.0" encoding="UTF-8"?><svg id="Capa_1" xmlns="http://www.w3.org/2000/svg" xmlns:xlink="http://www.w3.org/1999/xlink" viewBox="0 0 426.86 218"><defs><style>.cls-1{fill:none;}.cls-2{clip-path:url(#clippath);}.cls-3{clip-path:url(#clippath-1);}.cls-4{clip-path:url(#clippath-2);}.cls-5{fill:url(#Degradado_sin_nombre_2);}.cls-6{fill:url(#Degradado_sin_nombre_3);}.cls-7{fill:url(#Degradado_sin_nombre_4);}.cls-8{fill:url(#Degradado_sin_nombre);}</style><clipPath id="clippath"><path class="cls-1" d="m46,44h310c11.05,0,20,6.99,20,15.61v142.79c0,8.62-8.95,15.61-20,15.61H46c-11.05,0-20-6.99-20-15.61V59.61c0-8.62,8.95-15.61,20-15.61Z"/></clipPath><clipPath id="clippath-1"><rect class="cls-1" x="5.71" y="130.47" width="75.87" height="72.74" transform="translate(-128.67 173.77) rotate(-77.64)"/></clipPath><radialGradient id="Degradado_sin_nombre" cx="-470.69" cy="537.08" fx="-470.69" fy="537.08" r="1" gradientTransform="translate(18522.28 33790.04) rotate(12.36) scale(53.67 -53.82)" gradientUnits="userSpaceOnUse"><stop offset="0" stop-color="#f93a79"/><stop offset=".15" stop-color="#f4387b"/><stop offset=".31" stop-color="#e83383"/><stop offset=".47" stop-color="#d32c91"/><stop offset=".63" stop-color="#b621a4"/><stop offset=".8" stop-color="#9014bd"/><stop offset=".96" stop-color="#6304da"/><stop offset="1" stop-color="#5800e2"/></radialGradient><linearGradient id="Degradado_sin_nombre_2" x1="6.54" y1="153.3" x2="80.46" y2="137.1" gradientTransform="translate(0 312) scale(1 -1)" gradientUnits="userSpaceOnUse"><stop offset="0" stop-color="#6f00d4"/><stop offset="1" stop-color="#5800e2"/></linearGradient><clipPath id="clippath-2"><rect class="cls-1" x="302.15" y="20.39" width="102.55" height="106.67" transform="translate(32.63 239.37) rotate(-39.09)"/></clipPath><radialGradient id="Degradado_sin_nombre_3" cx="-478.07" cy="532.98" fx="-478.07" fy="532.98" r="1" gradientTransform="translate(53827.44 8557.05) rotate(-39.09) scale(75.66 -75.66)" gradientUnits="userSpaceOnUse"><stop offset="0" stop-color="#faaf38"/><stop offset=".15" stop-color="#f6aa3c"/><stop offset=".3" stop-color="#ea9e48"/><stop offset=".45" stop-color="#d7895c"/><stop offset=".61" stop-color="#bc6c78"/><stop offset=".77" stop-color="#99469d"/><stop offset=".92" stop-color="#6f19c9"/><stop offset="1" stop-color="#5800e2"/></radialGradient><linearGradient id="Degradado_sin_nombre_4" x1="395" y1="272.04" x2="312.2" y2="204.78" gradientTransform="translate(0 312) scale(1 -1)" gradientUnits="userSpaceOnUse"><stop offset="0" stop-color="#6f00d4"/><stop offset="1" stop-color="#5800e2"/></linearGradient></defs><g class="cls-2"><g><g class="cls-3"><g><path class="cls-8" d="m35.81,201.91c19.37,4.24,38.53-8.06,42.78-27.49,4.26-19.42-8-38.61-27.37-42.86-19.37-4.25-38.53,8.06-42.78,27.49-4.26,19.42,8,38.61,27.37,42.86Z"/><path class="cls-5" d="m67.77,140.14c1.39-.54,2.77-1.1,4.19-1.58,1.41-.51,2.83-.97,4.3-1.34,1.47-.35,2.95-.69,4.51-.75.78-.03,1.58,0,2.41.19.81.18,1.68.58,2.35,1.31.67.74.9,1.76.92,2.64.02.9-.15,1.72-.39,2.51-.47,1.57-1.18,2.97-1.93,4.33-1.53,2.7-3.31,5.22-5.22,7.62-1.91,2.4-3.98,4.64-6.19,6.73-2.21,2.09-4.55,4.01-6.91,5.91-4.72,3.78-9.63,7.29-14.67,10.6-5.04,3.29-10.23,6.38-15.56,9.18-5.34,2.79-10.82,5.34-16.55,7.32-2.87.98-5.8,1.84-8.85,2.29-1.53.22-3.09.35-4.71.17-.8-.1-1.63-.28-2.43-.68-.79-.38-1.54-1.07-1.9-1.95-.37-.87-.37-1.78-.24-2.59.14-.82.4-1.57.71-2.29.64-1.42,1.46-2.71,2.35-3.93,1.78-2.45,3.84-4.63,5.99-6.72-1.92,2.29-3.76,4.65-5.32,7.17-.77,1.26-1.46,2.56-1.94,3.92-.24.67-.41,1.36-.48,2.02-.06.66,0,1.31.28,1.8.49,1.01,1.8,1.4,3.14,1.46,1.36.06,2.79-.14,4.19-.43,2.81-.61,5.59-1.58,8.31-2.68,5.44-2.22,10.69-4.95,15.82-7.9,5.12-2.95,10.11-6.15,14.96-9.52,4.86-3.37,9.58-6.93,14.12-10.69,2.28-1.87,4.47-3.84,6.66-5.79,2.2-1.94,4.39-3.89,6.53-5.89,2.12-2.01,4.19-4.09,5.9-6.42.84-1.16,1.59-2.39,2.07-3.66.23-.64.39-1.28.4-1.89.01-.6-.14-1.12-.45-1.53-.29-.43-.78-.79-1.4-1.02-.61-.24-1.3-.36-2.01-.43-1.42-.13-2.91-.04-4.36.19-1.46.22-2.92.54-4.36.92-1.43.41-2.86.85-4.26,1.37h0Z"/></g></g><g class="cls-4"><g><path class="cls-6" d="m385.46,112.8c21.7-17.63,25-49.51,7.37-71.21-17.63-21.7-49.51-25-71.21-7.37-21.7,17.63-25,49.51-7.37,71.21,17.63,21.7,49.51,25,71.21,7.37Z"/><path class="cls-7" d="m306.21,55.5c-2.09.23-4.16.58-6.22.98-2.05.43-4.08.96-6.06,1.61-1.98.63-3.9,1.47-5.61,2.53-.85.53-1.64,1.13-2.26,1.82-.63.68-1.03,1.44-1.11,2.16-.12.72.01,1.46.41,2.21.39.75,1.01,1.46,1.69,2.12,1.4,1.3,3.13,2.37,4.92,3.29,3.61,1.83,7.54,3.13,11.48,4.31,3.96,1.15,7.94,2.2,11.94,3.25,4,1.05,7.99,2.13,12.04,3.04,8.09,1.84,16.29,3.31,24.53,4.47,8.25,1.15,16.54,2.01,24.85,2.46,8.3.45,16.64.55,24.89-.12,4.11-.35,8.23-.89,12.15-1.92,1.95-.53,3.87-1.18,5.55-2.12,1.66-.93,3.05-2.26,3.03-3.83.02-.79-.3-1.63-.79-2.44-.5-.8-1.16-1.54-1.88-2.24-1.46-1.39-3.15-2.59-4.92-3.69-3.55-2.18-7.35-3.98-11.22-5.63,4.01,1.26,7.99,2.7,11.78,4.64,1.89.97,3.74,2.06,5.45,3.45.85.7,1.65,1.49,2.34,2.42.67.94,1.25,2.08,1.33,3.41.1,1.32-.4,2.67-1.16,3.65-.74,1-1.68,1.76-2.62,2.39-1.91,1.26-3.97,2.09-6.03,2.78-4.14,1.36-8.36,2.15-12.59,2.74-8.47,1.15-16.98,1.42-25.46,1.31-8.49-.13-16.96-.71-25.38-1.65-8.43-.95-16.82-2.24-25.16-4-4.16-.89-8.33-1.81-12.42-3.04-4.09-1.23-8.12-2.72-12.04-4.52-3.91-1.79-7.74-3.83-11.38-6.26-1.8-1.25-3.58-2.56-5.16-4.23-.79-.83-1.53-1.77-2.07-2.9-.53-1.12-.88-2.55-.51-3.9.38-1.34,1.22-2.39,2.13-3.13.91-.77,1.9-1.31,2.91-1.77,2.01-.91,4.1-1.43,6.15-1.92,2.07-.47,4.16-.79,6.25-1.05,2.09-.3,4.18-.47,6.27-.67h0Z"/></g></g></g></g></svg>