<svg width="160" height="160" viewBox="0 0 160 160" fill="none" xmlns="http://www.w3.org/2000/svg">
<mask id="mask0_307_738" style="mask-type:alpha" maskUnits="userSpaceOnUse" x="0" y="0" width="160" height="160">
<circle cx="80" cy="80" r="80" fill="#D9D9D9"/>
</mask>
<g mask="url(#mask0_307_738)">
<rect x="-79" y="-33" width="336" height="211" fill="url(#paint0_linear_307_738)"/>
<path d="M118.158 34.4032L125 35L118.158 35.5968C117.859 35.6224 117.622 35.8608 117.597 36.1584L117 43L116.403 36.1584C116.378 35.8592 116.139 35.6224 115.842 35.5968L109 35L115.842 34.4032C116.141 34.3776 116.378 34.1392 116.403 33.8416L117 27L117.597 33.8416C117.622 34.1408 117.861 34.3776 118.158 34.4032Z" fill="white"/>
<path d="M30.1584 58.4032L37 59L30.1584 59.5968C29.8592 59.6224 29.6224 59.8608 29.5968 60.1584L29 67L28.4032 60.1584C28.3776 59.8592 28.1392 59.6224 27.8416 59.5968L21 59L27.8416 58.4032C28.1408 58.3776 28.3776 58.1392 28.4032 57.8416L29 51L29.5968 57.8416C29.6224 58.1408 29.8608 58.3776 30.1584 58.4032Z" fill="white"/>
<circle cx="155" cy="150" r="36" fill="white"/>
<circle cx="15" cy="15" r="15" transform="matrix(-1 0 0 1 175 97)" fill="white"/>
<circle cx="15" cy="15" r="15" transform="matrix(-1 0 0 1 137 121)" fill="white"/>
<circle cx="9" cy="9" r="9" transform="matrix(-1 0 0 1 171 91)" fill="white"/>
<circle cx="6" cy="6" r="6" transform="matrix(-1 0 0 1 125 113)" fill="white"/>
<circle cx="4" cy="4" r="4" transform="matrix(-1 0 0 1 148 103)" fill="white"/>
<circle cx="9" cy="9" r="9" transform="matrix(-1 0 0 1 140 113)" fill="white"/>
<circle cx="-2" cy="137" r="36" fill="white"/>
<circle cx="41" cy="138" r="18" fill="white"/>
<circle cx="32" cy="125" r="11" fill="white"/>
<circle cx="30" cy="121" r="11" fill="white"/>
<circle cx="3" cy="96" r="11" fill="white"/>
<circle cx="15" cy="103" r="9" fill="white"/>
<circle cx="32" cy="100" r="5" fill="white"/>
<circle cx="44" cy="119" r="5" fill="white"/>
<circle cx="-3" cy="87" r="5" fill="white"/>
<mask id="mask1_307_738" style="mask-type:alpha" maskUnits="userSpaceOnUse" x="-702" y="126" width="1583" height="1691">
<ellipse cx="89.5" cy="971.5" rx="791.5" ry="845.5" fill="white"/>
</mask>
<g mask="url(#mask1_307_738)">
<rect x="-86" y="-5" width="350" height="804" rx="20" fill="white"/>
</g>
<g filter="url(#filter0_d_307_738)">
<ellipse cx="78.7646" cy="133.5" rx="23" ry="3.5" fill="#E0E0E0"/>
</g>
<g clip-path="url(#clip0_307_738)">
<path d="M86.5193 117.208L71.7335 117.07C71.1164 117.064 70.6116 117.56 70.6058 118.177L70.5804 120.911C70.5746 121.528 71.0702 122.032 71.6872 122.038L86.4731 122.176C87.0901 122.182 87.595 121.686 87.6007 121.069L87.6262 118.335C87.6319 117.718 87.1364 117.213 86.5193 117.208Z" fill="url(#paint1_linear_307_738)"/>
<path d="M89.1261 111.388L69.2056 111.202C68.3785 111.195 67.7018 111.859 67.6941 112.686L67.6598 116.371C67.6521 117.198 68.3163 117.874 69.1434 117.882L89.0639 118.068C89.891 118.075 90.5678 117.411 90.5755 116.584L90.6098 112.899C90.6175 112.072 89.9532 111.396 89.1261 111.388Z" fill="url(#paint2_linear_307_738)"/>
<path d="M60.9878 87.7341C60.9878 87.7341 50.1228 99.8133 49.9829 102.301C49.843 104.789 54.95 132.609 54.95 132.609C54.95 132.609 60.5448 108.952 70.4064 103.532L60.9878 87.7341Z" fill="#0036E7"/>
<path d="M97.8057 88.0642C97.8057 88.0642 108.432 100.339 108.537 102.843C108.641 105.348 103.019 133.067 103.019 133.067C103.019 133.067 97.864 109.296 88.0805 103.716L97.7928 88.0842L97.8057 88.0642Z" fill="#0036E7"/>
<path d="M108.537 102.844C108.444 100.715 100.671 91.4239 98.4089 88.7952C98.2127 88.923 98.0952 89.0168 98.0952 89.0168C98.0952 89.0168 106.836 99.7001 106.405 103.728C105.975 107.755 102.547 117.149 102.547 117.149C102.547 117.149 96.5357 109.029 96.9536 105.588C97.3716 102.148 97.2659 91.7374 97.2659 91.7374L91.9413 107.07C99.2035 115.576 102.999 133.054 102.999 133.054C102.999 133.054 108.621 105.335 108.517 102.831L108.537 102.844Z" fill="url(#paint3_linear_307_738)"/>
<path d="M69.9684 102.766L66.2765 96.5752C63.2542 96.9103 57.2819 99.1291 56.4208 111.292C55.6296 122.736 55.1414 129.475 54.9223 132.478C54.9434 132.576 54.9504 132.609 54.9504 132.609C54.9504 132.609 60.4698 109.243 70.2434 103.653L69.9684 102.766Z" fill="url(#paint4_linear_307_738)"/>
<path d="M78.712 112.657C78.712 112.657 68.2268 113.621 67.1912 112.553C66.1556 111.485 56.1232 90.9536 60.5786 63.2425C65.034 35.5315 77.4499 23.5513 80.068 23.5774C82.686 23.6035 95.2781 35.9062 98.8139 64.0961C102.35 92.286 92.211 112.77 91.4197 112.767L78.712 112.657Z" fill="white"/>
<path d="M88.6194 72.3885C91.8484 67.4094 90.4296 60.7555 85.4505 57.5266C80.4715 54.2977 73.8176 55.7165 70.5887 60.6955C67.3597 65.6746 68.7785 72.3285 73.7576 75.5574C78.7366 78.7863 85.3905 77.3676 88.6194 72.3885Z" fill="#0036E7"/>
<path d="M85.6674 70.4747C87.8391 67.1259 86.8849 62.6507 83.5361 60.4791C80.1874 58.3074 75.7122 59.2616 73.5405 62.6104C71.3689 65.9591 72.3231 70.4343 75.6719 72.606C79.0206 74.7776 83.4958 73.8234 85.6674 70.4747Z" fill="#00C4F8"/>
<path d="M87.6769 98.9215C97.6954 89.2399 96.2711 66.3576 93.9179 43.553C95.9868 49.1447 97.7809 55.9466 98.801 64.1166C102.337 92.3065 92.1982 112.79 91.4069 112.787L78.6992 112.678C78.6992 112.678 68.214 113.642 67.1784 112.574C66.5908 111.994 63.2902 105.462 61.1933 95.0637C73.7848 102.124 82.8833 103.605 87.6839 98.9543L87.6769 98.9215Z" fill="url(#paint5_linear_307_738)"/>
<path d="M78.8968 136.097C78.8968 136.097 75.0857 108.55 74.7504 103.431C74.4151 98.3115 76.5987 87.9974 79.6125 88.0251C82.6262 88.0528 84.2411 97.8835 83.673 103.522C83.1049 109.16 78.9168 136.11 78.9168 136.11L78.8968 136.097Z" fill="#0036E7"/>
<path d="M67.0361 40.5707C70.7002 43.0035 75.0767 44.425 79.7987 44.4838C84.5206 44.5426 89.0656 43.1266 92.8132 40.7119C87.8707 28.9782 81.8087 23.602 80.0676 23.5779C78.3265 23.5539 72.222 28.8602 67.0361 40.5707Z" fill="url(#paint6_linear_307_738)"/>
<path style="mix-blend-mode:multiply" opacity="0.2" d="M83.9706 35.9967C83.5544 35.4152 80.5102 28.3127 78.7347 28.6913C76.9592 29.0698 54.1483 53.8025 67.0024 107.557C67.0024 107.557 64.3124 80.0291 67.5876 65.3229C70.8628 50.6167 87.4689 40.9571 83.9706 35.9967Z" fill="url(#paint7_radial_307_738)"/>
<path d="M78.8695 135.965L78.8846 136.117C78.8846 136.117 83.0728 109.167 83.6409 103.529C84.2289 97.9035 82.594 88.0599 79.5803 88.0321C79.4089 88.0343 79.2445 88.0694 79.0871 88.1373C80.0011 91.0534 80.7149 97.9481 80.291 110.792C79.917 121.854 79.1623 132.018 78.8695 135.965Z" fill="url(#paint8_linear_307_738)"/>
<path d="M129.488 83.627L133.764 84L129.488 84.373C129.301 84.389 129.153 84.538 129.137 84.724L128.764 89L128.391 84.724C128.375 84.537 128.226 84.389 128.04 84.373L123.764 84L128.04 83.627C128.227 83.611 128.375 83.462 128.391 83.276L128.764 79L129.137 83.276C129.153 83.463 129.302 83.611 129.488 83.627Z" fill="white"/>
</g>
</g>
<defs>
<filter id="filter0_d_307_738" x="51.7646" y="126" width="54" height="15" filterUnits="userSpaceOnUse" color-interpolation-filters="sRGB">
<feFlood flood-opacity="0" result="BackgroundImageFix"/>
<feColorMatrix in="SourceAlpha" type="matrix" values="0 0 0 0 0 0 0 0 0 0 0 0 0 0 0 0 0 0 127 0" result="hardAlpha"/>
<feOffset/>
<feGaussianBlur stdDeviation="2"/>
<feComposite in2="hardAlpha" operator="out"/>
<feColorMatrix type="matrix" values="0 0 0 0 0 0 0 0 0 0 0 0 0 0 0 0 0 0 0.25 0"/>
<feBlend mode="normal" in2="BackgroundImageFix" result="effect1_dropShadow_307_738"/>
<feBlend mode="normal" in="SourceGraphic" in2="effect1_dropShadow_307_738" result="shape"/>
</filter>
<linearGradient id="paint0_linear_307_738" x1="257" y1="148" x2="-79" y2="-33" gradientUnits="userSpaceOnUse">
<stop stop-color="#0036E7"/>
<stop offset="1" stop-color="#00FFE0"/>
</linearGradient>
<linearGradient id="paint1_linear_307_738" x1="70.5694" y1="119.532" x2="87.5898" y2="119.69" gradientUnits="userSpaceOnUse">
<stop stop-color="#00C4F8"/>
<stop offset="1" stop-color="#0036E7"/>
</linearGradient>
<linearGradient id="paint2_linear_307_738" x1="67.6768" y1="114.54" x2="90.5925" y2="114.754" gradientUnits="userSpaceOnUse">
<stop stop-color="#113EBC"/>
<stop offset="1" stop-color="#221668"/>
</linearGradient>
<linearGradient id="paint3_linear_307_738" x1="91.9176" y1="110.839" x2="108.463" y2="110.993" gradientUnits="userSpaceOnUse">
<stop stop-color="#113EBC"/>
<stop offset="1" stop-color="#221668"/>
</linearGradient>
<linearGradient id="paint4_linear_307_738" x1="54.1399" y1="110.963" x2="62.299" y2="115.556" gradientUnits="userSpaceOnUse">
<stop stop-color="#113EBC"/>
<stop offset="1" stop-color="#221668"/>
</linearGradient>
<linearGradient id="paint5_linear_307_738" x1="68.5199" y1="72.9881" x2="128.81" y2="98.4878" gradientUnits="userSpaceOnUse">
<stop stop-color="white"/>
<stop offset="1" stop-color="#221668"/>
</linearGradient>
<linearGradient id="paint6_linear_307_738" x1="67.1001" y1="33.915" x2="92.8684" y2="34.1549" gradientUnits="userSpaceOnUse">
<stop stop-color="#0086FF"/>
<stop offset="1" stop-color="#4626C7"/>
</linearGradient>
<radialGradient id="paint7_radial_307_738" cx="0" cy="0" r="1" gradientUnits="userSpaceOnUse" gradientTransform="translate(80.2314 104.549) rotate(0.533365) scale(60.0255 60.0255)">
<stop stop-color="#0086FF" stop-opacity="0"/>
<stop offset="1" stop-color="#8A56ED"/>
</radialGradient>
<linearGradient id="paint8_linear_307_738" x1="78.8782" y1="112.073" x2="83.6562" y2="112.118" gradientUnits="userSpaceOnUse">
<stop stop-color="#113EBC"/>
<stop offset="1" stop-color="#221668"/>
</linearGradient>
<clipPath id="clip0_307_738">
<rect width="105.407" height="81.3257" fill="white" transform="translate(20.7637 110.438) rotate(-57.0366)"/>
</clipPath>
</defs>
</svg>
