<?xml version="1.0" encoding="UTF-8"?><svg id="Capa_1" xmlns="http://www.w3.org/2000/svg" xmlns:xlink="http://www.w3.org/1999/xlink" viewBox="0 0 393.5 951"><defs><style>.cls-1{fill:none;}.cls-2{clip-path:url(#clippath);}.cls-3,.cls-4{fill:#fff;}.cls-5{clip-path:url(#clippath-1);}.cls-4,.cls-6{isolation:isolate;opacity:.75;}.cls-6{fill:#5800e2;}.cls-7{fill:url(#Degradado_sin_nombre_2);}.cls-8{fill:url(#Degradado_sin_nombre_3);}.cls-9{fill:url(#Degradado_sin_nombre_4);}.cls-10{fill:url(#Degradado_sin_nombre_5);}</style><clipPath id="clippath"><rect class="cls-1" width="393.5" height="951" rx="20" ry="20"/></clipPath><clipPath id="clippath-1"><rect class="cls-1" x="52.93" y="47.85" width="231.52" height="221.97" transform="translate(-22.57 289.62) rotate(-77.64)"/></clipPath><radialGradient id="Degradado_sin_nombre_2" cx="-2304.56" cy="433.41" fx="-2304.56" fy="433.41" r="1" gradientTransform="translate(353549.83 150414.26) rotate(12.36) scale(163.76 -164.21)" gradientUnits="userSpaceOnUse"><stop offset="0" stop-color="#f93a79"/><stop offset=".15" stop-color="#f4387b"/><stop offset=".31" stop-color="#e83383"/><stop offset=".47" stop-color="#d32c91"/><stop offset=".63" stop-color="#b621a4"/><stop offset=".8" stop-color="#9014bd"/><stop offset=".96" stop-color="#6304da"/><stop offset="1" stop-color="#5800e2"/></radialGradient><linearGradient id="Degradado_sin_nombre_3" x1="55.46" y1="-33.61" x2="281.01" y2="-83.04" gradientTransform="translate(0 100.39) scale(1 -1)" gradientUnits="userSpaceOnUse"><stop offset="0" stop-color="#6f00d4"/><stop offset="1" stop-color="#5800e2"/></linearGradient><linearGradient id="Degradado_sin_nombre_4" x1="311.99" y1="-937.61" x2="311.99" y2="243.39" gradientTransform="translate(0 100.39) scale(1 -1)" gradientUnits="userSpaceOnUse"><stop offset="0" stop-color="#00ffe0"/><stop offset="1" stop-color="#0036e7" stop-opacity="0"/></linearGradient><linearGradient id="Degradado_sin_nombre_5" x1="513.49" y1="-914.61" x2="513.49" y2="91.39" gradientTransform="translate(0 100.39) scale(1 -1)" gradientUnits="userSpaceOnUse"><stop offset="0" stop-color="#0036e7" stop-opacity=".5"/><stop offset="1" stop-color="#00ffe0"/></linearGradient></defs><g class="cls-2"><g><g class="cls-5"><g><path class="cls-7" d="m145.37,266.14c59.11,12.95,117.56-24.6,130.55-83.87,12.99-59.27-24.4-117.83-83.51-130.78-59.11-12.95-117.56,24.6-130.55,83.87-12.99,59.27,24.4,117.83,83.51,130.78Z"/><path class="cls-8" d="m242.29,77.36c4.25-1.64,8.46-3.36,12.79-4.82,4.29-1.54,8.64-2.97,13.11-4.08,4.47-1.07,9-2.1,13.77-2.29,2.39-.09,4.83-.01,7.34.58,2.48.56,5.13,1.76,7.16,3.99,2.04,2.26,2.74,5.37,2.8,8.06.06,2.73-.47,5.26-1.18,7.65-1.42,4.79-3.59,9.07-5.88,13.22-4.67,8.25-10.09,15.94-15.92,23.24-5.83,7.32-12.16,14.15-18.88,20.53-6.73,6.37-13.89,12.24-21.07,18.02-14.4,11.53-29.38,22.25-44.76,32.34-15.38,10.05-31.2,19.46-47.48,28.01-16.3,8.5-33.03,16.28-50.51,22.34-8.75,2.99-17.69,5.61-27.02,7-4.66.68-9.45,1.08-14.38.51-2.45-.3-4.98-.85-7.4-2.07-2.42-1.15-4.71-3.28-5.8-5.94-1.14-2.66-1.12-5.43-.74-7.91.43-2.49,1.21-4.79,2.16-6.97,1.95-4.35,4.47-8.27,7.18-12,5.45-7.46,11.73-14.14,18.27-20.5-5.87,6.98-11.48,14.18-16.22,21.87-2.36,3.84-4.46,7.82-5.93,11.95-.72,2.06-1.26,4.14-1.46,6.18-.17,2.03.03,3.99.85,5.49,1.49,3.08,5.49,4.28,9.59,4.47,4.15.18,8.5-.43,12.79-1.32,8.58-1.85,17.06-4.82,25.36-8.16,16.6-6.77,32.63-15.1,48.25-24.09,15.63-9,30.84-18.75,45.66-29.05,14.83-10.29,29.23-21.16,43.08-32.63,6.95-5.72,13.63-11.72,20.33-17.65,6.71-5.93,13.39-11.87,19.93-17.96,6.47-6.12,12.8-12.48,18-19.57,2.56-3.54,4.86-7.29,6.31-11.18.69-1.94,1.18-3.92,1.22-5.75.03-1.84-.44-3.41-1.36-4.68-.87-1.31-2.38-2.41-4.26-3.1-1.86-.73-3.97-1.11-6.13-1.31-4.34-.38-8.87-.12-13.31.59-4.47.69-8.91,1.66-13.29,2.81-4.37,1.24-8.72,2.58-12.99,4.19l.02.03Z"/></g></g><path class="cls-9" d="m181.58,322.31c-41.81,255.44-188.93,328.16,41.8,715.69h446.11l-26.46-971.13V-68.78l-288.41-74.22C174.7-100.5-150.55-14.59-12.11-10.91c173.05,4.6,235.49,77.78,193.69,333.22Z"/><path class="cls-10" d="m315.33,755.56c46.29,42.63,70,155.12,0,240.84l443.16,18.6V9h-382.75c0,36.59-20.96,113.32-60.41,157.84-71.13,80.28,0,152.4,60.41,211.36,60.4,58.96,16.37,144.69-60.41,208.64-76.78,63.95-46.29,126.09,0,168.72Z"/><circle class="cls-4" cx="361.99" cy="119.5" r="198.5"/><circle class="cls-4" cx="260.99" cy="444.5" r="48.5"/><circle class="cls-6" cx="167.99" cy="493.5" r="92.5"/><circle class="cls-4" cx="368.99" cy="112.5" r="165.5"/><path class="cls-3" d="m150.71,485.31l30.79,2.69-30.79,2.69c-1.34.11-2.41,1.19-2.52,2.53l-2.69,30.79-2.69-30.79c-.11-1.35-1.18-2.41-2.52-2.53l-30.79-2.69,30.79-2.69c1.34-.11,2.41-1.19,2.52-2.53l2.69-30.79,2.69,30.79c.11,1.35,1.18,2.41,2.52,2.53Z"/><path class="cls-3" d="m255.71,814.31l30.79,2.69-30.79,2.69c-1.34.12-2.41,1.19-2.52,2.53l-2.69,30.79-2.69-30.79c-.11-1.35-1.18-2.41-2.52-2.53l-30.79-2.69,30.79-2.69c1.34-.12,2.41-1.19,2.52-2.53l2.69-30.79,2.69,30.79c.11,1.35,1.18,2.41,2.52,2.53Z"/><path class="cls-3" d="m126.26,124.06l22.24,1.94-22.24,1.94c-.97.08-1.74.86-1.82,1.82l-1.94,22.24-1.94-22.24c-.08-.97-.86-1.74-1.82-1.82l-22.24-1.94,22.24-1.94c.97-.08,1.74-.86,1.82-1.82l1.94-22.24,1.94,22.24c.08.97.86,1.74,1.82,1.82Z"/></g></g></svg>