<?xml version="1.0" encoding="UTF-8"?><svg id="Capa_1" xmlns="http://www.w3.org/2000/svg" xmlns:xlink="http://www.w3.org/1999/xlink" viewBox="0 0 649.55 487.64"><defs><style>.cls-1{fill:none;}.cls-2{fill:url(#Degradado_sin_nombre_11);opacity:.2;}.cls-2,.cls-3{isolation:isolate;}.cls-4{clip-path:url(#clippath);}.cls-5{fill:#0036e7;}.cls-6{fill:#00c4f8;}.cls-7,.cls-3{fill:#fff;}.cls-8{clip-path:url(#clippath-1);}.cls-3{opacity:.87;}.cls-9{fill:url(#Degradado_sin_nombre_10);}.cls-10{fill:url(#Degradado_sin_nombre_12);}.cls-11{opacity:.26;}.cls-12{opacity:.7;}.cls-13{fill:url(#Degradado_sin_nombre_6);}.cls-14{fill:url(#Degradado_sin_nombre_7);}.cls-15{fill:url(#Degradado_sin_nombre_2);}.cls-16{fill:url(#Degradado_sin_nombre_3);}.cls-17{fill:url(#Degradado_sin_nombre_8);}.cls-18{fill:url(#Degradado_sin_nombre_9);}.cls-19{fill:url(#Degradado_sin_nombre_4);}.cls-20{fill:url(#Degradado_sin_nombre_5);}.cls-21{fill:url(#Degradado_sin_nombre);}</style><clipPath id="clippath"><rect class="cls-1" width="649.55" height="487.64" rx="20" ry="20"/></clipPath><clipPath id="clippath-1"><path class="cls-1" d="m244.05,134C240.05,34.4,86.72.5,10.55-4v-39.5h684V494.5c-41.5-26.5-118.7-91.7-95.5-140.5,29-61-10.5-145.5-116.5-103.5s-233.5,8-238.5-116.5Zm287,146c21.26,0,38.5,17.24,38.5,38.5s-17.24,38.5-38.5,38.5-38.5-17.24-38.5-38.5,17.24-38.5,38.5-38.5Z"/></clipPath><linearGradient id="Degradado_sin_nombre" x1="49.75" y1="1564.08" x2="734.25" y2="2096.08" gradientTransform="translate(0 -1555.33)" gradientUnits="userSpaceOnUse"><stop offset="0" stop-color="#00ffe0"/><stop offset="1" stop-color="#0036e7"/></linearGradient><linearGradient id="Degradado_sin_nombre_2" x1="385.6" y1="1860.54" x2="505.36" y2="1828.45" gradientTransform="translate(0 -1555.33)" gradientUnits="userSpaceOnUse"><stop offset="0" stop-color="#00c4f8"/><stop offset="1" stop-color="#0036e7"/></linearGradient><linearGradient id="Degradado_sin_nombre_3" x1="336.34" y1="1880.96" x2="509.19" y2="1834.64" gradientTransform="translate(0 -1555.33)" gradientUnits="userSpaceOnUse"><stop offset="0" stop-color="#00c4f8"/><stop offset="1" stop-color="#0036e7"/></linearGradient><linearGradient id="Degradado_sin_nombre_4" x1="341.3" y1="1859.99" x2="537.81" y2="1862.07" gradientTransform="translate(0 -1555.33)" gradientUnits="userSpaceOnUse"><stop offset="0" stop-color="#6f00d4"/><stop offset="1" stop-color="#5800e2"/></linearGradient><linearGradient id="Degradado_sin_nombre_5" x1="447.3" y1="1696.68" x2="468.9" y2="1716.53" gradientTransform="translate(0 -1555.33)" gradientUnits="userSpaceOnUse"><stop offset="0" stop-color="#00c4f8"/><stop offset="1" stop-color="#0036e7"/></linearGradient><linearGradient id="Degradado_sin_nombre_6" x1="449.39" y1="1686.9" x2="478.48" y2="1713.63" gradientTransform="translate(0 -1555.33)" gradientUnits="userSpaceOnUse"><stop offset="0" stop-color="#113ebc"/><stop offset="1" stop-color="#221668"/></linearGradient><linearGradient id="Degradado_sin_nombre_7" x1="484.75" y1="1710.19" x2="505.75" y2="1729.48" gradientTransform="translate(0 -1555.33)" gradientUnits="userSpaceOnUse"><stop offset="0" stop-color="#113ebc"/><stop offset="1" stop-color="#221668"/></linearGradient><linearGradient id="Degradado_sin_nombre_8" x1="436.14" y1="1666.71" x2="441.29" y2="1682.02" gradientTransform="translate(0 -1555.33)" gradientUnits="userSpaceOnUse"><stop offset="0" stop-color="#113ebc"/><stop offset="1" stop-color="#221668"/></linearGradient><linearGradient id="Degradado_sin_nombre_9" x1="498.47" y1="1634.61" x2="546.28" y2="1736.97" gradientTransform="translate(0 -1555.33)" gradientUnits="userSpaceOnUse"><stop offset="0" stop-color="#fff"/><stop offset="1" stop-color="#221668"/></linearGradient><linearGradient id="Degradado_sin_nombre_10" x1="541.8" y1="1582.87" x2="574.56" y2="1612.97" gradientTransform="translate(0 -1555.33)" gradientUnits="userSpaceOnUse"><stop offset="0" stop-color="#0086ff"/><stop offset="1" stop-color="#4626c7"/></linearGradient><radialGradient id="Degradado_sin_nombre_11" cx="-2471.93" cy="2127.57" fx="-2471.93" fy="2127.57" r="1" gradientTransform="translate(338229.54 10975.03) rotate(42.56) scale(103.61 103.62)" gradientUnits="userSpaceOnUse"><stop offset="0" stop-color="#0086ff" stop-opacity="0"/><stop offset="1" stop-color="#8a56ed"/></radialGradient><linearGradient id="Degradado_sin_nombre_12" x1="466.58" y1="1696.67" x2="472.67" y2="1702.26" gradientTransform="translate(0 -1555.33)" gradientUnits="userSpaceOnUse"><stop offset="0" stop-color="#113ebc"/><stop offset="1" stop-color="#221668"/></linearGradient></defs><g class="cls-4"><g class="cls-8"><g><rect class="cls-21" x="-83.54" y="-89.34" width="956" height="732"/><path class="cls-3" d="m463.69,132.54s-181.38,141.45-152.96,235.18c28.43,93.73,96.65,75.41,96.65,75.41l-57.3,37.35,232.97-131.98s-110.4-10.49-134.53-91.18,34.02-121.38,34.02-121.38"/><g class="cls-12"><path class="cls-15" d="m463.21,152.46c-8.33,9.2-15.73,19.16-22.39,29.49-6.67,10.32-12.58,21.08-17.33,32.21-9.5,22.12-14.53,46.15-10.85,68.32,1.82,11.07,5.71,21.45,11.21,30.89,2.57,4.83,6.1,9.11,9.32,13.52,3.85,4.07,7.25,8.34,11.57,11.94,16.45,15.09,36.65,26.58,58.06,35.75l-18.73,36.19c-22.51-13.59-44.23-29.95-61.7-51.09-17.76-20.6-29.54-48.07-30.08-75.45-.34-13.67,1.98-27.03,5.94-39.52,3.95-12.53,9.57-24.23,16.13-35.11,6.55-10.93,14.1-21.11,22.31-30.61,8.2-9.5,16.94-18.43,26.48-26.42l.06-.1h0Z"/></g><g class="cls-11"><path class="cls-16" d="m465.69,141.9c-22.23,20.57-42.23,43.47-59.4,68.03-17.05,24.53-31.18,51.38-37.62,79.53-3.17,14.02-4.24,28.28-2.41,41.93,1.68,13.7,6.7,26.58,14.01,38,7.38,11.36,16.5,21.79,27.63,30.32,5.11,4.66,11.34,8.26,17.06,12.29,5.94,3.8,12.34,7.06,18.48,10.63l-15.84,27.61c-6.64-4.63-13.39-8.9-19.81-13.81-6.25-5.25-12.77-9.92-18.46-15.95-11.97-11.06-22.15-24.61-29.88-39.35-7.7-14.8-12.45-31.41-13.02-47.95-.73-16.54,2.01-32.78,6.89-47.89,9.88-30.34,27.14-56.63,46.68-80.13,19.67-23.49,41.74-44.65,65.7-63.22v-.04h-.01Z"/></g><path class="cls-19" d="m478.07,133.53c-12.56,12.28-24.02,25.51-34.55,39.33-10.49,13.81-20.01,28.21-27.98,43.22-7.92,14.99-14.28,30.58-17.94,46.26-3.66,15.68-4.43,31.35-1.53,45.65,5.64,28.82,26.34,50.75,52.21,67.05,1.63,1.01,3.08,2.15,4.82,3.08l5.16,2.78,10.24,5.54c7.28,3.23,14.46,6.53,21.81,9.57,7.65,2.71,15.1,5.6,22.79,8.12l23.49,6.96-25.01,67.95-25.23-12.52c-8.33-4.44-16.58-9.36-24.76-14.05-8.12-5.09-16.09-10.6-23.99-15.96l-11.53-9.1-5.72-4.54c-1.9-1.53-3.66-3.35-5.51-5.02l-10.77-10.24c-3.42-3.71-6.71-7.59-9.98-11.39-1.59-1.95-3.37-3.68-4.8-5.85l-4.41-6.33c-2.88-4.24-5.89-8.32-8.19-13.1-10.17-18-16.33-38.91-16.65-59.46-.47-20.6,4.39-40.21,11.78-57.65,7.46-17.54,17.41-33.21,28.53-47.53s23.46-27.4,36.46-39.46c13.04-12.07,26.74-23.26,41.24-33.22l.02-.09h0Z"/><path class="cls-20" d="m470.42,156.76l-18.79-17.26c-.79-.72-2.01-.67-2.73.12l-3.19,3.48c-.72.79-.67,2,.11,2.72l18.8,17.26c.79.72,2.01.67,2.73-.12l3.19-3.48c.72-.78.67-2-.12-2.72Z"/><path class="cls-13" d="m480.52,152.34l-25.32-23.26c-1.05-.97-2.69-.9-3.66.15l-4.3,4.68c-.97,1.05-.9,2.69.16,3.65l25.32,23.26c1.05.97,2.69.9,3.66-.15l4.3-4.68c.97-1.05.9-2.69-.16-3.65Z"/><path class="cls-5" d="m471.78,89.47s-27.89,2.93-30.95,5.96c-3.05,3.03-28.67,44.59-28.67,44.59,0,0,34.52-23.86,53.43-19.41l6.19-31.14h0Z"/><path class="cls-5" d="m518.57,132.45s-.57,28.01-3.33,31.35c-2.76,3.33-42.02,32.37-42.02,32.37,0,0,20.87-36.43,14.78-54.89l30.53-8.82h.04,0Z"/><path class="cls-14" d="m515.28,163.78c2.34-2.84,3.11-23.73,3.25-29.71-.4-.06-.66-.08-.66-.08,0,0-1.14,23.8-6.35,28.46-5.21,4.67-20.46,12.75-20.46,12.75,0,0,1.68-17.36,6.19-21.28,4.52-3.93,16.42-17.4,16.42-17.4l-24.56,13.5c-.52,19.3-15.86,46.09-15.86,46.09,0,0,39.25-29.04,42.02-32.37v.04h.01Z"/><path class="cls-17" d="m465.88,119.12l2.42-12.2c-4.26-3.06-14.48-7.12-29.65,7.48-14.24,13.76-22.66,21.83-26.41,25.43-.1.11-.12.2-.12.2,0,0,34.09-23.58,53.09-19.45l.67-1.45h0Z"/><path class="cls-7" d="m465.69,141.9s-14.56-10.88-14.65-13.45,10.78-40.48,48.53-70.85c37.75-30.38,67.48-31.38,70.81-28.32,3.33,3.06,5.25,33.38-22.81,73.6s-64.74,54.77-65.75,53.85l-16.17-14.82h.04Z"/><path class="cls-5" d="m524.91,101.74c9.9-2.65,15.77-12.82,13.12-22.71-2.65-9.89-12.82-15.76-22.72-13.11s-15.77,12.82-13.12,22.71,12.82,15.76,22.72,13.11Z"/><path class="cls-6" d="m523.34,95.87c6.66-1.78,10.61-8.62,8.82-15.28-1.78-6.65-8.62-10.6-15.28-8.82-6.65,1.78-10.6,8.62-8.82,15.28,1.78,6.65,8.62,10.6,15.28,8.82Z"/><path class="cls-18" d="m493.07,134.65c24.04-.83,48.66-31.81,72.01-63.77-3.81,9.56-9.37,20.35-17.51,32-28.06,40.22-64.74,54.77-65.75,53.85l-16.17-14.82s-14.56-10.88-14.65-13.45c-.08-1.42,3.24-13.61,12.57-29.36,7.98,23.6,17.94,36.01,29.47,35.6l.03-.05h0Z"/><path class="cls-5" d="m438.79,172.17s26.96-39.72,32.45-46.67,20.21-17.65,24.05-14.13c3.83,3.52-5.47,17.99-12.71,24.56-7.25,6.57-43.78,36.28-43.78,36.28v-.04h-.01Z"/><path class="cls-9" d="m534.02,36.01c1.89,7.35,5.86,14.23,11.84,19.76,5.99,5.53,13.45,8.97,21.05,10.2,7.23-20.75,5.67-34.65,3.47-36.69-2.21-2.04-16.17-2.29-36.36,6.73h0Z"/><path class="cls-2" d="m561.06,49.7c.14-1.23,4.45-13.85,1.74-15.42-2.72-1.57-60.6,3.79-106.26,87.56,0,0,28.37-38.4,49.57-53.47,21.21-15.07,53.66-8.26,54.91-18.66h.04Z"/><path class="cls-10" d="m438.95,171.96l-.16.21s36.53-29.71,43.77-36.28c7.26-6.53,16.55-21.04,12.71-24.56-.22-.2-.47-.34-.75-.43-2.2,4.79-9.25,14.46-24.65,30.43-13.27,13.75-25.98,25.91-30.92,30.63h0Z"/><path class="cls-7" d="m320.15,419.98c-56.42-39.63-34.92-113.35.15-160.08,11.41-16.1,24.49-30.86,38.45-44.58-12.43,15.14-24.34,30.65-34.93,46.95-31.58,47.37-51.44,113.73-3.67,157.71h0Z"/><path class="cls-7" d="m372.68,476.5c23.34-6.25,37.2-30.24,30.95-53.57-6.26-23.33-30.24-37.18-53.58-30.92-23.34,6.25-37.2,30.24-30.94,53.57,6.25,23.33,30.24,37.18,53.57,30.92Z"/><path class="cls-7" d="m436.76,421.15c23.34-6.25,37.19-30.24,30.94-53.57-6.25-23.33-30.24-37.17-53.58-30.92-23.34,6.25-37.19,30.24-30.94,53.57,6.25,23.33,30.24,37.18,53.58,30.92h0Z"/><path class="cls-7" d="m541.06,407.3c23.34-6.25,37.19-30.24,30.94-53.57-6.25-23.33-30.24-37.17-53.58-30.92-23.34,6.25-37.19,30.24-30.94,53.57,6.25,23.33,30.24,37.18,53.58,30.92h0Z"/><path class="cls-7" d="m488.51,369.31c14.04-3.76,22.37-18.18,18.61-32.21s-18.19-22.35-32.22-18.59-22.36,18.18-18.6,32.21c3.75,14.03,18.18,22.35,32.21,18.59h0Z"/><path class="cls-7" d="m458.27,349.51c9.94-2.66,15.84-12.88,13.17-22.81-2.66-9.94-12.88-15.83-22.82-13.17-9.94,2.66-15.84,12.88-13.17,22.81,2.66,9.94,12.88,15.83,22.82,13.17Z"/><path class="cls-7" d="m345.97,376.79c7.64-2.05,12.18-9.9,10.13-17.54-2.05-7.64-9.9-12.17-17.54-10.12s-12.18,9.9-10.13,17.54c2.04,7.64,9.9,12.17,17.54,10.12Z"/><path class="cls-7" d="m428.29,318.21c7.65-2.05,12.18-9.9,10.13-17.54-2.04-7.64-9.9-12.17-17.54-10.12-7.64,2.05-12.17,9.9-10.13,17.54,2.05,7.64,9.9,12.17,17.54,10.12Z"/><path class="cls-7" d="m522.15,355.28c14.03-3.76,22.36-18.18,18.6-32.21s-18.18-22.35-32.22-18.59c-14.03,3.76-22.36,18.18-18.6,32.21s18.18,22.35,32.22,18.59Z"/><path class="cls-7" d="m345.13,424.25c14.03-3.76,22.36-18.18,18.61-32.21-3.76-14.03-18.19-22.35-32.22-18.59-14.04,3.76-22.37,18.18-18.61,32.21s18.19,22.35,32.22,18.59Z"/><path class="cls-7" d="m379.36,389.47c14.04-3.76,22.37-18.18,18.61-32.21-3.76-14.03-18.19-22.35-32.22-18.59-14.04,3.76-22.37,18.18-18.61,32.21,3.76,14.03,18.19,22.35,32.22,18.59Z"/><path class="cls-7" d="m408.33,373.42c14.04-3.76,22.37-18.18,18.61-32.21s-18.19-22.35-32.22-18.59c-14.04,3.76-22.37,18.18-18.61,32.21s18.19,22.35,32.22,18.59h0Z"/><path class="cls-7" d="m444.63,372.53c10.47-2.8,16.68-13.56,13.88-24.02-2.81-10.46-13.56-16.67-24.03-13.87-10.46,2.8-16.67,13.56-13.87,24.02s13.56,16.67,24.02,13.87Z"/><path class="cls-7" d="m335.21,97.57l39.34,3.43-39.34,3.43c-1.72.15-3.08,1.52-3.23,3.23l-3.43,39.34-3.43-39.34c-.15-1.72-1.52-3.08-3.23-3.23l-39.34-3.43,39.34-3.43c1.72-.15,3.08-1.52,3.23-3.23l3.43-39.34,3.43,39.34c.15,1.72,1.52,3.08,3.23,3.23Z"/><path class="cls-7" d="m590.31,174.06l22.24,1.94-22.24,1.94c-.97.08-1.74.86-1.82,1.82l-1.94,22.24-1.94-22.24c-.08-.97-.86-1.74-1.82-1.82l-22.24-1.94,22.24-1.94c.97-.08,1.74-.86,1.82-1.82l1.94-22.24,1.94,22.24c.08.97.86,1.74,1.82,1.82Z"/></g></g></g></svg>